<mxfile host="app.diagrams.net" agent="Mozilla/5.0 (Windows NT 10.0; Win64; x64) AppleWebKit/537.36 (KHTML, like Gecko) Chrome/135.0.0.0 Safari/537.36" version="26.2.12" pages="5">
  <diagram name="sharding" id="B5Z_fvy_xUXjZGVmnp4I">
    <mxGraphModel dx="1491" dy="1630" grid="1" gridSize="10" guides="1" tooltips="1" connect="1" arrows="1" fold="1" page="1" pageScale="1" pageWidth="1169" pageHeight="827" math="0" shadow="0">
      <root>
        <mxCell id="YdCcWibhczuaHY7CpKrH-0" />
        <mxCell id="YdCcWibhczuaHY7CpKrH-1" parent="YdCcWibhczuaHY7CpKrH-0" />
        <mxCell id="YdCcWibhczuaHY7CpKrH-3" value="pymongo-api" style="rounded=1;whiteSpace=wrap;html=1;" parent="YdCcWibhczuaHY7CpKrH-1" vertex="1">
          <mxGeometry x="150" y="290" width="120" height="60" as="geometry" />
        </mxCell>
        <mxCell id="YdCcWibhczuaHY7CpKrH-4" style="edgeStyle=orthogonalEdgeStyle;rounded=0;orthogonalLoop=1;jettySize=auto;html=1;exitX=1;exitY=0.5;exitDx=0;exitDy=0;" parent="YdCcWibhczuaHY7CpKrH-1" source="YdCcWibhczuaHY7CpKrH-3" edge="1">
          <mxGeometry relative="1" as="geometry">
            <mxPoint x="390" y="320" as="targetPoint" />
          </mxGeometry>
        </mxCell>
        <mxCell id="yaf1Anc-3SWBd6jXudML-11" value="" style="group" parent="YdCcWibhczuaHY7CpKrH-1" vertex="1" connectable="0">
          <mxGeometry x="820" y="410" width="270" height="140" as="geometry" />
        </mxCell>
        <mxCell id="yaf1Anc-3SWBd6jXudML-8" value="" style="rounded=1;whiteSpace=wrap;html=1;" parent="yaf1Anc-3SWBd6jXudML-11" vertex="1">
          <mxGeometry width="270" height="140" as="geometry" />
        </mxCell>
        <mxCell id="yaf1Anc-3SWBd6jXudML-10" value="shard_2" style="shape=cylinder3;whiteSpace=wrap;html=1;boundedLbl=1;backgroundOutline=1;size=15;" parent="yaf1Anc-3SWBd6jXudML-11" vertex="1">
          <mxGeometry x="30" y="30" width="60" height="80" as="geometry" />
        </mxCell>
        <mxCell id="yaf1Anc-3SWBd6jXudML-12" value="" style="group" parent="YdCcWibhczuaHY7CpKrH-1" vertex="1" connectable="0">
          <mxGeometry x="820" y="70" width="270" height="140" as="geometry" />
        </mxCell>
        <mxCell id="yaf1Anc-3SWBd6jXudML-7" value="" style="rounded=1;whiteSpace=wrap;html=1;" parent="yaf1Anc-3SWBd6jXudML-12" vertex="1">
          <mxGeometry width="270" height="140" as="geometry" />
        </mxCell>
        <mxCell id="yaf1Anc-3SWBd6jXudML-9" value="shard_1" style="shape=cylinder3;whiteSpace=wrap;html=1;boundedLbl=1;backgroundOutline=1;size=15;" parent="yaf1Anc-3SWBd6jXudML-12" vertex="1">
          <mxGeometry x="30" y="30" width="60" height="80" as="geometry" />
        </mxCell>
        <mxCell id="yaf1Anc-3SWBd6jXudML-15" value="" style="group" parent="YdCcWibhczuaHY7CpKrH-1" vertex="1" connectable="0">
          <mxGeometry x="670" y="140" width="150" height="260" as="geometry" />
        </mxCell>
        <mxCell id="yaf1Anc-3SWBd6jXudML-13" value="" style="edgeStyle=elbowEdgeStyle;elbow=horizontal;endArrow=classic;html=1;curved=0;rounded=0;endSize=8;startSize=8;exitX=1;exitY=0.5;exitDx=0;exitDy=0;exitPerimeter=0;" parent="yaf1Anc-3SWBd6jXudML-15" edge="1">
          <mxGeometry width="50" height="50" relative="1" as="geometry">
            <mxPoint x="-50" y="180" as="sourcePoint" />
            <mxPoint x="150" as="targetPoint" />
          </mxGeometry>
        </mxCell>
        <mxCell id="yaf1Anc-3SWBd6jXudML-14" value="" style="edgeStyle=elbowEdgeStyle;elbow=horizontal;endArrow=classic;html=1;curved=0;rounded=0;endSize=8;startSize=8;entryX=0;entryY=0.5;entryDx=0;entryDy=0;" parent="yaf1Anc-3SWBd6jXudML-15" target="yaf1Anc-3SWBd6jXudML-8" edge="1">
          <mxGeometry width="50" height="50" relative="1" as="geometry">
            <mxPoint y="180" as="sourcePoint" />
            <mxPoint x="100" y="340" as="targetPoint" />
            <Array as="points">
              <mxPoint x="50" y="260" />
            </Array>
          </mxGeometry>
        </mxCell>
        <mxCell id="fO9xHTfm4YxYy5CokxKE-0" value="router" style="shape=parallelogram;perimeter=parallelogramPerimeter;whiteSpace=wrap;html=1;fixedSize=1;" vertex="1" parent="YdCcWibhczuaHY7CpKrH-1">
          <mxGeometry x="380" y="290" width="120" height="60" as="geometry" />
        </mxCell>
        <mxCell id="fO9xHTfm4YxYy5CokxKE-1" value="" style="group" vertex="1" connectable="0" parent="YdCcWibhczuaHY7CpKrH-1">
          <mxGeometry x="315" y="-60" width="270" height="140" as="geometry" />
        </mxCell>
        <mxCell id="fO9xHTfm4YxYy5CokxKE-2" value="" style="rounded=1;whiteSpace=wrap;html=1;" vertex="1" parent="fO9xHTfm4YxYy5CokxKE-1">
          <mxGeometry width="270" height="140" as="geometry" />
        </mxCell>
        <mxCell id="fO9xHTfm4YxYy5CokxKE-3" value="configSrv" style="shape=cylinder3;whiteSpace=wrap;html=1;boundedLbl=1;backgroundOutline=1;size=15;" vertex="1" parent="fO9xHTfm4YxYy5CokxKE-1">
          <mxGeometry x="30" y="30" width="60" height="80" as="geometry" />
        </mxCell>
        <mxCell id="fO9xHTfm4YxYy5CokxKE-4" value="" style="endArrow=classic;html=1;rounded=0;exitX=0.5;exitY=0;exitDx=0;exitDy=0;" edge="1" parent="YdCcWibhczuaHY7CpKrH-1" source="fO9xHTfm4YxYy5CokxKE-0" target="fO9xHTfm4YxYy5CokxKE-2">
          <mxGeometry width="50" height="50" relative="1" as="geometry">
            <mxPoint x="730" y="260" as="sourcePoint" />
            <mxPoint x="780" y="210" as="targetPoint" />
          </mxGeometry>
        </mxCell>
        <mxCell id="fO9xHTfm4YxYy5CokxKE-5" value="" style="endArrow=none;html=1;rounded=0;exitX=1;exitY=0.75;exitDx=0;exitDy=0;" edge="1" parent="YdCcWibhczuaHY7CpKrH-1" source="fO9xHTfm4YxYy5CokxKE-0">
          <mxGeometry width="50" height="50" relative="1" as="geometry">
            <mxPoint x="730" y="260" as="sourcePoint" />
            <mxPoint x="620" y="320" as="targetPoint" />
          </mxGeometry>
        </mxCell>
      </root>
    </mxGraphModel>
  </diagram>
  <diagram name="replication" id="pUN4k7aqw3dx2dxKBlUL">
    <mxGraphModel dx="2610" dy="2232" grid="1" gridSize="10" guides="1" tooltips="1" connect="1" arrows="1" fold="1" page="1" pageScale="1" pageWidth="1169" pageHeight="827" math="0" shadow="0">
      <root>
        <mxCell id="_mxrV8RgKYkfCGJTTyt4-0" />
        <mxCell id="_mxrV8RgKYkfCGJTTyt4-1" parent="_mxrV8RgKYkfCGJTTyt4-0" />
        <mxCell id="_mxrV8RgKYkfCGJTTyt4-3" value="pymongo-api" style="rounded=1;whiteSpace=wrap;html=1;" parent="_mxrV8RgKYkfCGJTTyt4-1" vertex="1">
          <mxGeometry x="130" y="290" width="120" height="60" as="geometry" />
        </mxCell>
        <mxCell id="_mxrV8RgKYkfCGJTTyt4-4" style="edgeStyle=orthogonalEdgeStyle;rounded=0;orthogonalLoop=1;jettySize=auto;html=1;exitX=1;exitY=0.5;exitDx=0;exitDy=0;" parent="_mxrV8RgKYkfCGJTTyt4-1" source="_mxrV8RgKYkfCGJTTyt4-3" edge="1">
          <mxGeometry relative="1" as="geometry">
            <mxPoint x="370" y="320" as="targetPoint" />
          </mxGeometry>
        </mxCell>
        <mxCell id="_mxrV8RgKYkfCGJTTyt4-15" value="" style="group" parent="_mxrV8RgKYkfCGJTTyt4-1" vertex="1" connectable="0">
          <mxGeometry x="670" y="140" width="150" height="260" as="geometry" />
        </mxCell>
        <mxCell id="_mxrV8RgKYkfCGJTTyt4-16" value="" style="edgeStyle=elbowEdgeStyle;elbow=horizontal;endArrow=classic;html=1;curved=0;rounded=0;endSize=8;startSize=8;exitX=1;exitY=0.5;exitDx=0;exitDy=0;exitPerimeter=0;" parent="_mxrV8RgKYkfCGJTTyt4-15" edge="1">
          <mxGeometry width="50" height="50" relative="1" as="geometry">
            <mxPoint x="-50" y="180.00000000000023" as="sourcePoint" />
            <mxPoint x="150" as="targetPoint" />
          </mxGeometry>
        </mxCell>
        <mxCell id="_mxrV8RgKYkfCGJTTyt4-17" value="" style="edgeStyle=elbowEdgeStyle;elbow=horizontal;endArrow=classic;html=1;curved=0;rounded=0;endSize=8;startSize=8;entryX=0;entryY=0.5;entryDx=0;entryDy=0;" parent="_mxrV8RgKYkfCGJTTyt4-15" target="_mxrV8RgKYkfCGJTTyt4-10" edge="1">
          <mxGeometry width="50" height="50" relative="1" as="geometry">
            <mxPoint y="180" as="sourcePoint" />
            <mxPoint x="100" y="340" as="targetPoint" />
            <Array as="points">
              <mxPoint x="50" y="260" />
            </Array>
          </mxGeometry>
        </mxCell>
        <mxCell id="_mxrV8RgKYkfCGJTTyt4-18" value="2" style="ellipse;whiteSpace=wrap;html=1;fillColor=light-dark(#FF66FF,#EDEDED);" parent="_mxrV8RgKYkfCGJTTyt4-1" vertex="1">
          <mxGeometry x="840" y="50" width="20" height="20" as="geometry" />
        </mxCell>
        <mxCell id="_mxrV8RgKYkfCGJTTyt4-10" value="" style="rounded=1;whiteSpace=wrap;html=1;" parent="_mxrV8RgKYkfCGJTTyt4-1" vertex="1">
          <mxGeometry x="820" y="370" width="290" height="520" as="geometry" />
        </mxCell>
        <mxCell id="_mxrV8RgKYkfCGJTTyt4-13" value="" style="rounded=1;whiteSpace=wrap;html=1;" parent="_mxrV8RgKYkfCGJTTyt4-1" vertex="1">
          <mxGeometry x="820" y="-280" width="280" height="570" as="geometry" />
        </mxCell>
        <mxCell id="UekF1aO0GM4xZxPlgVdk-0" value="" style="group" vertex="1" connectable="0" parent="_mxrV8RgKYkfCGJTTyt4-1">
          <mxGeometry x="315" y="-60" width="270" height="140" as="geometry" />
        </mxCell>
        <mxCell id="UekF1aO0GM4xZxPlgVdk-1" value="" style="rounded=1;whiteSpace=wrap;html=1;" vertex="1" parent="UekF1aO0GM4xZxPlgVdk-0">
          <mxGeometry x="35" y="-40" width="270" height="140" as="geometry" />
        </mxCell>
        <mxCell id="UekF1aO0GM4xZxPlgVdk-2" value="configSrv" style="shape=cylinder3;whiteSpace=wrap;html=1;boundedLbl=1;backgroundOutline=1;size=15;" vertex="1" parent="UekF1aO0GM4xZxPlgVdk-0">
          <mxGeometry x="75" y="-10" width="60" height="80" as="geometry" />
        </mxCell>
        <mxCell id="4_B20n25Se525gCaZIHK-0" value="router" style="shape=parallelogram;perimeter=parallelogramPerimeter;whiteSpace=wrap;html=1;fixedSize=1;" vertex="1" parent="_mxrV8RgKYkfCGJTTyt4-1">
          <mxGeometry x="360" y="290" width="120" height="60" as="geometry" />
        </mxCell>
        <mxCell id="4_B20n25Se525gCaZIHK-1" value="" style="endArrow=classic;html=1;rounded=0;exitX=0.5;exitY=0;exitDx=0;exitDy=0;" edge="1" parent="_mxrV8RgKYkfCGJTTyt4-1" source="4_B20n25Se525gCaZIHK-0" target="UekF1aO0GM4xZxPlgVdk-1">
          <mxGeometry width="50" height="50" relative="1" as="geometry">
            <mxPoint x="570" y="320" as="sourcePoint" />
            <mxPoint x="620" y="270" as="targetPoint" />
          </mxGeometry>
        </mxCell>
        <mxCell id="4_B20n25Se525gCaZIHK-2" value="" style="endArrow=none;html=1;rounded=0;" edge="1" parent="_mxrV8RgKYkfCGJTTyt4-1" source="4_B20n25Se525gCaZIHK-0">
          <mxGeometry width="50" height="50" relative="1" as="geometry">
            <mxPoint x="570" y="320" as="sourcePoint" />
            <mxPoint x="620" y="320" as="targetPoint" />
          </mxGeometry>
        </mxCell>
        <mxCell id="A1fgIEiA12hfbRqKRCGh-4" value="" style="group" vertex="1" connectable="0" parent="_mxrV8RgKYkfCGJTTyt4-1">
          <mxGeometry x="920" y="-260" width="90" height="490" as="geometry" />
        </mxCell>
        <mxCell id="6hfTXw6U2OUm4TKCt5nT-4" value="shard1" style="shape=cylinder3;whiteSpace=wrap;html=1;boundedLbl=1;backgroundOutline=1;size=15;" parent="A1fgIEiA12hfbRqKRCGh-4" vertex="1">
          <mxGeometry width="90" height="80" as="geometry" />
        </mxCell>
        <mxCell id="6hfTXw6U2OUm4TKCt5nT-5" value="shard1-1" style="shape=cylinder3;whiteSpace=wrap;html=1;boundedLbl=1;backgroundOutline=1;size=15;" parent="A1fgIEiA12hfbRqKRCGh-4" vertex="1">
          <mxGeometry y="206.43" width="90" height="80" as="geometry" />
        </mxCell>
        <mxCell id="6hfTXw6U2OUm4TKCt5nT-6" value="shard1-2" style="shape=cylinder3;whiteSpace=wrap;html=1;boundedLbl=1;backgroundOutline=1;size=15;" parent="A1fgIEiA12hfbRqKRCGh-4" vertex="1">
          <mxGeometry y="410" width="90" height="80" as="geometry" />
        </mxCell>
        <mxCell id="A1fgIEiA12hfbRqKRCGh-0" value="" style="endArrow=classic;startArrow=classic;html=1;rounded=0;exitX=0.5;exitY=0;exitDx=0;exitDy=0;exitPerimeter=0;entryX=0.5;entryY=1;entryDx=0;entryDy=0;entryPerimeter=0;" edge="1" parent="A1fgIEiA12hfbRqKRCGh-4" source="6hfTXw6U2OUm4TKCt5nT-5" target="6hfTXw6U2OUm4TKCt5nT-4">
          <mxGeometry width="50" height="50" relative="1" as="geometry">
            <mxPoint x="-610" y="370" as="sourcePoint" />
            <mxPoint x="-560" y="320" as="targetPoint" />
          </mxGeometry>
        </mxCell>
        <mxCell id="A1fgIEiA12hfbRqKRCGh-1" value="" style="endArrow=classic;startArrow=classic;html=1;rounded=0;" edge="1" parent="A1fgIEiA12hfbRqKRCGh-4" source="6hfTXw6U2OUm4TKCt5nT-6" target="6hfTXw6U2OUm4TKCt5nT-5">
          <mxGeometry width="50" height="50" relative="1" as="geometry">
            <mxPoint x="-610" y="370" as="sourcePoint" />
            <mxPoint x="-560" y="320" as="targetPoint" />
          </mxGeometry>
        </mxCell>
        <mxCell id="A1fgIEiA12hfbRqKRCGh-7" value="" style="group" vertex="1" connectable="0" parent="_mxrV8RgKYkfCGJTTyt4-1">
          <mxGeometry x="920" y="384" width="90" height="442.86" as="geometry" />
        </mxCell>
        <mxCell id="6hfTXw6U2OUm4TKCt5nT-9" value="shard2-1" style="shape=cylinder3;whiteSpace=wrap;html=1;boundedLbl=1;backgroundOutline=1;size=15;" parent="A1fgIEiA12hfbRqKRCGh-7" vertex="1">
          <mxGeometry y="172.86" width="90" height="77.14" as="geometry" />
        </mxCell>
        <mxCell id="6hfTXw6U2OUm4TKCt5nT-10" value="shard2-2" style="shape=cylinder3;whiteSpace=wrap;html=1;boundedLbl=1;backgroundOutline=1;size=15;" parent="A1fgIEiA12hfbRqKRCGh-7" vertex="1">
          <mxGeometry y="367.15" width="90" height="75.71" as="geometry" />
        </mxCell>
        <mxCell id="6hfTXw6U2OUm4TKCt5nT-8" value="shard2" style="shape=cylinder3;whiteSpace=wrap;html=1;boundedLbl=1;backgroundOutline=1;size=15;" parent="A1fgIEiA12hfbRqKRCGh-7" vertex="1">
          <mxGeometry width="90" height="71.43" as="geometry" />
        </mxCell>
        <mxCell id="A1fgIEiA12hfbRqKRCGh-5" value="" style="endArrow=classic;startArrow=classic;html=1;rounded=0;exitX=0.5;exitY=0;exitDx=0;exitDy=0;exitPerimeter=0;entryX=0.5;entryY=1;entryDx=0;entryDy=0;entryPerimeter=0;" edge="1" parent="A1fgIEiA12hfbRqKRCGh-7" source="6hfTXw6U2OUm4TKCt5nT-9" target="6hfTXw6U2OUm4TKCt5nT-8">
          <mxGeometry width="50" height="50" relative="1" as="geometry">
            <mxPoint x="-260" y="240" as="sourcePoint" />
            <mxPoint x="-210" y="190" as="targetPoint" />
          </mxGeometry>
        </mxCell>
        <mxCell id="A1fgIEiA12hfbRqKRCGh-6" value="" style="endArrow=classic;startArrow=classic;html=1;rounded=0;exitX=0.5;exitY=0;exitDx=0;exitDy=0;exitPerimeter=0;entryX=0.5;entryY=1;entryDx=0;entryDy=0;entryPerimeter=0;" edge="1" parent="A1fgIEiA12hfbRqKRCGh-7" source="6hfTXw6U2OUm4TKCt5nT-10" target="6hfTXw6U2OUm4TKCt5nT-9">
          <mxGeometry width="50" height="50" relative="1" as="geometry">
            <mxPoint x="-260" y="240" as="sourcePoint" />
            <mxPoint x="-210" y="190" as="targetPoint" />
          </mxGeometry>
        </mxCell>
      </root>
    </mxGraphModel>
  </diagram>
  <diagram name="caching" id="0bLw2hvGSEYnezfyyPUg">
    <mxGraphModel dx="393" dy="1630" grid="1" gridSize="10" guides="1" tooltips="1" connect="1" arrows="1" fold="1" page="1" pageScale="1" pageWidth="1169" pageHeight="827" math="0" shadow="0">
      <root>
        <mxCell id="RzNRgUgFyulPZfDWsmPW-0" />
        <mxCell id="RzNRgUgFyulPZfDWsmPW-1" parent="RzNRgUgFyulPZfDWsmPW-0" />
        <mxCell id="RzNRgUgFyulPZfDWsmPW-2" value="pymongo-api" style="rounded=1;whiteSpace=wrap;html=1;" parent="RzNRgUgFyulPZfDWsmPW-1" vertex="1">
          <mxGeometry x="130" y="290" width="120" height="60" as="geometry" />
        </mxCell>
        <mxCell id="RzNRgUgFyulPZfDWsmPW-3" style="edgeStyle=orthogonalEdgeStyle;rounded=0;orthogonalLoop=1;jettySize=auto;html=1;exitX=1;exitY=0.5;exitDx=0;exitDy=0;" parent="RzNRgUgFyulPZfDWsmPW-1" source="RzNRgUgFyulPZfDWsmPW-2" edge="1">
          <mxGeometry relative="1" as="geometry">
            <mxPoint x="370" y="320" as="targetPoint" />
          </mxGeometry>
        </mxCell>
        <mxCell id="RzNRgUgFyulPZfDWsmPW-4" value="" style="group" parent="RzNRgUgFyulPZfDWsmPW-1" vertex="1" connectable="0">
          <mxGeometry x="670" y="140" width="150" height="260" as="geometry" />
        </mxCell>
        <mxCell id="RzNRgUgFyulPZfDWsmPW-5" value="" style="edgeStyle=elbowEdgeStyle;elbow=horizontal;endArrow=classic;html=1;curved=0;rounded=0;endSize=8;startSize=8;exitX=1;exitY=0.5;exitDx=0;exitDy=0;exitPerimeter=0;" parent="RzNRgUgFyulPZfDWsmPW-4" edge="1">
          <mxGeometry width="50" height="50" relative="1" as="geometry">
            <mxPoint x="-50" y="180.00000000000023" as="sourcePoint" />
            <mxPoint x="150" as="targetPoint" />
          </mxGeometry>
        </mxCell>
        <mxCell id="RzNRgUgFyulPZfDWsmPW-6" value="" style="edgeStyle=elbowEdgeStyle;elbow=horizontal;endArrow=classic;html=1;curved=0;rounded=0;endSize=8;startSize=8;entryX=0;entryY=0.5;entryDx=0;entryDy=0;" parent="RzNRgUgFyulPZfDWsmPW-4" target="RzNRgUgFyulPZfDWsmPW-8" edge="1">
          <mxGeometry width="50" height="50" relative="1" as="geometry">
            <mxPoint y="180" as="sourcePoint" />
            <mxPoint x="100" y="340" as="targetPoint" />
            <Array as="points">
              <mxPoint x="50" y="260" />
            </Array>
          </mxGeometry>
        </mxCell>
        <mxCell id="RzNRgUgFyulPZfDWsmPW-7" value="2" style="ellipse;whiteSpace=wrap;html=1;fillColor=light-dark(#FF66FF,#EDEDED);" parent="RzNRgUgFyulPZfDWsmPW-1" vertex="1">
          <mxGeometry x="840" y="50" width="20" height="20" as="geometry" />
        </mxCell>
        <mxCell id="RzNRgUgFyulPZfDWsmPW-8" value="" style="rounded=1;whiteSpace=wrap;html=1;" parent="RzNRgUgFyulPZfDWsmPW-1" vertex="1">
          <mxGeometry x="820" y="370" width="290" height="520" as="geometry" />
        </mxCell>
        <mxCell id="RzNRgUgFyulPZfDWsmPW-9" value="" style="rounded=1;whiteSpace=wrap;html=1;" parent="RzNRgUgFyulPZfDWsmPW-1" vertex="1">
          <mxGeometry x="820" y="-280" width="280" height="570" as="geometry" />
        </mxCell>
        <mxCell id="RzNRgUgFyulPZfDWsmPW-10" value="" style="group;rotation=90;" parent="RzNRgUgFyulPZfDWsmPW-1" vertex="1" connectable="0">
          <mxGeometry x="315" y="-60" width="270" height="140" as="geometry" />
        </mxCell>
        <mxCell id="RzNRgUgFyulPZfDWsmPW-11" value="" style="rounded=1;whiteSpace=wrap;html=1;" parent="RzNRgUgFyulPZfDWsmPW-10" vertex="1">
          <mxGeometry x="35" y="-40" width="270" height="140" as="geometry" />
        </mxCell>
        <mxCell id="RzNRgUgFyulPZfDWsmPW-12" value="configSrv" style="shape=cylinder3;whiteSpace=wrap;html=1;boundedLbl=1;backgroundOutline=1;size=15;" parent="RzNRgUgFyulPZfDWsmPW-10" vertex="1">
          <mxGeometry x="75" y="-10" width="60" height="80" as="geometry" />
        </mxCell>
        <mxCell id="RzNRgUgFyulPZfDWsmPW-13" value="router" style="shape=parallelogram;perimeter=parallelogramPerimeter;whiteSpace=wrap;html=1;fixedSize=1;" parent="RzNRgUgFyulPZfDWsmPW-1" vertex="1">
          <mxGeometry x="360" y="290" width="120" height="60" as="geometry" />
        </mxCell>
        <mxCell id="RzNRgUgFyulPZfDWsmPW-14" value="" style="endArrow=classic;html=1;rounded=0;exitX=0.5;exitY=0;exitDx=0;exitDy=0;" parent="RzNRgUgFyulPZfDWsmPW-1" source="RzNRgUgFyulPZfDWsmPW-13" target="RzNRgUgFyulPZfDWsmPW-11" edge="1">
          <mxGeometry width="50" height="50" relative="1" as="geometry">
            <mxPoint x="570" y="320" as="sourcePoint" />
            <mxPoint x="620" y="270" as="targetPoint" />
          </mxGeometry>
        </mxCell>
        <mxCell id="RzNRgUgFyulPZfDWsmPW-15" value="" style="endArrow=none;html=1;rounded=0;" parent="RzNRgUgFyulPZfDWsmPW-1" source="RzNRgUgFyulPZfDWsmPW-13" edge="1">
          <mxGeometry width="50" height="50" relative="1" as="geometry">
            <mxPoint x="570" y="320" as="sourcePoint" />
            <mxPoint x="620" y="320" as="targetPoint" />
          </mxGeometry>
        </mxCell>
        <mxCell id="RzNRgUgFyulPZfDWsmPW-16" value="" style="group" parent="RzNRgUgFyulPZfDWsmPW-1" vertex="1" connectable="0">
          <mxGeometry x="920" y="-260" width="90" height="490" as="geometry" />
        </mxCell>
        <mxCell id="RzNRgUgFyulPZfDWsmPW-17" value="shard1" style="shape=cylinder3;whiteSpace=wrap;html=1;boundedLbl=1;backgroundOutline=1;size=15;" parent="RzNRgUgFyulPZfDWsmPW-16" vertex="1">
          <mxGeometry width="90" height="80" as="geometry" />
        </mxCell>
        <mxCell id="RzNRgUgFyulPZfDWsmPW-18" value="shard1-1" style="shape=cylinder3;whiteSpace=wrap;html=1;boundedLbl=1;backgroundOutline=1;size=15;" parent="RzNRgUgFyulPZfDWsmPW-16" vertex="1">
          <mxGeometry y="206.43" width="90" height="80" as="geometry" />
        </mxCell>
        <mxCell id="RzNRgUgFyulPZfDWsmPW-19" value="shard1-2" style="shape=cylinder3;whiteSpace=wrap;html=1;boundedLbl=1;backgroundOutline=1;size=15;" parent="RzNRgUgFyulPZfDWsmPW-16" vertex="1">
          <mxGeometry y="410" width="90" height="80" as="geometry" />
        </mxCell>
        <mxCell id="RzNRgUgFyulPZfDWsmPW-20" value="" style="endArrow=classic;startArrow=classic;html=1;rounded=0;exitX=0.5;exitY=0;exitDx=0;exitDy=0;exitPerimeter=0;entryX=0.5;entryY=1;entryDx=0;entryDy=0;entryPerimeter=0;" parent="RzNRgUgFyulPZfDWsmPW-16" source="RzNRgUgFyulPZfDWsmPW-18" target="RzNRgUgFyulPZfDWsmPW-17" edge="1">
          <mxGeometry width="50" height="50" relative="1" as="geometry">
            <mxPoint x="-610" y="370" as="sourcePoint" />
            <mxPoint x="-560" y="320" as="targetPoint" />
          </mxGeometry>
        </mxCell>
        <mxCell id="RzNRgUgFyulPZfDWsmPW-21" value="" style="endArrow=classic;startArrow=classic;html=1;rounded=0;" parent="RzNRgUgFyulPZfDWsmPW-16" source="RzNRgUgFyulPZfDWsmPW-19" target="RzNRgUgFyulPZfDWsmPW-18" edge="1">
          <mxGeometry width="50" height="50" relative="1" as="geometry">
            <mxPoint x="-610" y="370" as="sourcePoint" />
            <mxPoint x="-560" y="320" as="targetPoint" />
          </mxGeometry>
        </mxCell>
        <mxCell id="RzNRgUgFyulPZfDWsmPW-22" value="" style="group" parent="RzNRgUgFyulPZfDWsmPW-1" vertex="1" connectable="0">
          <mxGeometry x="920" y="384" width="90" height="442.86" as="geometry" />
        </mxCell>
        <mxCell id="RzNRgUgFyulPZfDWsmPW-23" value="shard2-1" style="shape=cylinder3;whiteSpace=wrap;html=1;boundedLbl=1;backgroundOutline=1;size=15;" parent="RzNRgUgFyulPZfDWsmPW-22" vertex="1">
          <mxGeometry y="172.86" width="90" height="77.14" as="geometry" />
        </mxCell>
        <mxCell id="RzNRgUgFyulPZfDWsmPW-24" value="shard2-2" style="shape=cylinder3;whiteSpace=wrap;html=1;boundedLbl=1;backgroundOutline=1;size=15;" parent="RzNRgUgFyulPZfDWsmPW-22" vertex="1">
          <mxGeometry y="367.15" width="90" height="75.71" as="geometry" />
        </mxCell>
        <mxCell id="RzNRgUgFyulPZfDWsmPW-25" value="shard2" style="shape=cylinder3;whiteSpace=wrap;html=1;boundedLbl=1;backgroundOutline=1;size=15;" parent="RzNRgUgFyulPZfDWsmPW-22" vertex="1">
          <mxGeometry width="90" height="71.43" as="geometry" />
        </mxCell>
        <mxCell id="RzNRgUgFyulPZfDWsmPW-26" value="" style="endArrow=classic;startArrow=classic;html=1;rounded=0;exitX=0.5;exitY=0;exitDx=0;exitDy=0;exitPerimeter=0;entryX=0.5;entryY=1;entryDx=0;entryDy=0;entryPerimeter=0;" parent="RzNRgUgFyulPZfDWsmPW-22" source="RzNRgUgFyulPZfDWsmPW-23" target="RzNRgUgFyulPZfDWsmPW-25" edge="1">
          <mxGeometry width="50" height="50" relative="1" as="geometry">
            <mxPoint x="-260" y="240" as="sourcePoint" />
            <mxPoint x="-210" y="190" as="targetPoint" />
          </mxGeometry>
        </mxCell>
        <mxCell id="RzNRgUgFyulPZfDWsmPW-27" value="" style="endArrow=classic;startArrow=classic;html=1;rounded=0;exitX=0.5;exitY=0;exitDx=0;exitDy=0;exitPerimeter=0;entryX=0.5;entryY=1;entryDx=0;entryDy=0;entryPerimeter=0;" parent="RzNRgUgFyulPZfDWsmPW-22" source="RzNRgUgFyulPZfDWsmPW-24" target="RzNRgUgFyulPZfDWsmPW-23" edge="1">
          <mxGeometry width="50" height="50" relative="1" as="geometry">
            <mxPoint x="-260" y="240" as="sourcePoint" />
            <mxPoint x="-210" y="190" as="targetPoint" />
          </mxGeometry>
        </mxCell>
        <mxCell id="VlDRDppD6Py2ZAvefoJC-2" value="" style="endArrow=classic;html=1;rounded=0;exitX=0.5;exitY=1;exitDx=0;exitDy=0;" parent="RzNRgUgFyulPZfDWsmPW-1" target="VlDRDppD6Py2ZAvefoJC-1" edge="1">
          <mxGeometry width="50" height="50" relative="1" as="geometry">
            <mxPoint x="186.12999999999977" y="350.0000000000002" as="sourcePoint" />
            <mxPoint x="193.87193548387074" y="590" as="targetPoint" />
          </mxGeometry>
        </mxCell>
        <mxCell id="WcqQ-sDsg8i9BA-IOxK9-1" value="" style="group" vertex="1" connectable="0" parent="RzNRgUgFyulPZfDWsmPW-1">
          <mxGeometry x="130" y="490" width="90" height="140" as="geometry" />
        </mxCell>
        <mxCell id="VlDRDppD6Py2ZAvefoJC-1" value="" style="html=1;whiteSpace=wrap;shape=isoCube2;backgroundOutline=1;isoAngle=15;" parent="WcqQ-sDsg8i9BA-IOxK9-1" vertex="1">
          <mxGeometry width="90" height="100" as="geometry" />
        </mxCell>
        <mxCell id="WcqQ-sDsg8i9BA-IOxK9-0" value="Redis" style="text;html=1;align=center;verticalAlign=middle;resizable=0;points=[];autosize=1;strokeColor=none;fillColor=none;" vertex="1" parent="WcqQ-sDsg8i9BA-IOxK9-1">
          <mxGeometry x="20" y="110" width="50" height="30" as="geometry" />
        </mxCell>
      </root>
    </mxGraphModel>
  </diagram>
  <diagram name="balancing" id="atj9ilvRyxZ4JocZP4ws">
    <mxGraphModel dx="2678" dy="1488" grid="1" gridSize="10" guides="1" tooltips="1" connect="1" arrows="1" fold="1" page="1" pageScale="1" pageWidth="1169" pageHeight="827" math="0" shadow="0">
      <root>
        <mxCell id="R6TzSi4NHT4oEp8yDii9-0" />
        <mxCell id="R6TzSi4NHT4oEp8yDii9-1" parent="R6TzSi4NHT4oEp8yDii9-0" />
        <mxCell id="R6TzSi4NHT4oEp8yDii9-2" value="pymongo-api" style="rounded=1;whiteSpace=wrap;html=1;" vertex="1" parent="R6TzSi4NHT4oEp8yDii9-1">
          <mxGeometry x="130" y="290" width="120" height="60" as="geometry" />
        </mxCell>
        <mxCell id="R6TzSi4NHT4oEp8yDii9-3" style="edgeStyle=orthogonalEdgeStyle;rounded=0;orthogonalLoop=1;jettySize=auto;html=1;exitX=1;exitY=0.5;exitDx=0;exitDy=0;" edge="1" parent="R6TzSi4NHT4oEp8yDii9-1" source="R6TzSi4NHT4oEp8yDii9-2">
          <mxGeometry relative="1" as="geometry">
            <mxPoint x="370" y="320" as="targetPoint" />
          </mxGeometry>
        </mxCell>
        <mxCell id="R6TzSi4NHT4oEp8yDii9-4" value="" style="group" vertex="1" connectable="0" parent="R6TzSi4NHT4oEp8yDii9-1">
          <mxGeometry x="670" y="140" width="150" height="260" as="geometry" />
        </mxCell>
        <mxCell id="R6TzSi4NHT4oEp8yDii9-5" value="" style="edgeStyle=elbowEdgeStyle;elbow=horizontal;endArrow=classic;html=1;curved=0;rounded=0;endSize=8;startSize=8;exitX=1;exitY=0.5;exitDx=0;exitDy=0;exitPerimeter=0;" edge="1" parent="R6TzSi4NHT4oEp8yDii9-4">
          <mxGeometry width="50" height="50" relative="1" as="geometry">
            <mxPoint x="-50" y="180.00000000000023" as="sourcePoint" />
            <mxPoint x="150" as="targetPoint" />
          </mxGeometry>
        </mxCell>
        <mxCell id="R6TzSi4NHT4oEp8yDii9-6" value="" style="edgeStyle=elbowEdgeStyle;elbow=horizontal;endArrow=classic;html=1;curved=0;rounded=0;endSize=8;startSize=8;entryX=0;entryY=0.5;entryDx=0;entryDy=0;" edge="1" parent="R6TzSi4NHT4oEp8yDii9-4" target="R6TzSi4NHT4oEp8yDii9-8">
          <mxGeometry width="50" height="50" relative="1" as="geometry">
            <mxPoint y="180" as="sourcePoint" />
            <mxPoint x="100" y="340" as="targetPoint" />
            <Array as="points">
              <mxPoint x="50" y="260" />
            </Array>
          </mxGeometry>
        </mxCell>
        <mxCell id="R6TzSi4NHT4oEp8yDii9-7" value="2" style="ellipse;whiteSpace=wrap;html=1;fillColor=light-dark(#FF66FF,#EDEDED);" vertex="1" parent="R6TzSi4NHT4oEp8yDii9-1">
          <mxGeometry x="840" y="50" width="20" height="20" as="geometry" />
        </mxCell>
        <mxCell id="R6TzSi4NHT4oEp8yDii9-8" value="" style="rounded=1;whiteSpace=wrap;html=1;" vertex="1" parent="R6TzSi4NHT4oEp8yDii9-1">
          <mxGeometry x="820" y="370" width="290" height="520" as="geometry" />
        </mxCell>
        <mxCell id="R6TzSi4NHT4oEp8yDii9-9" value="" style="rounded=1;whiteSpace=wrap;html=1;" vertex="1" parent="R6TzSi4NHT4oEp8yDii9-1">
          <mxGeometry x="820" y="-280" width="280" height="570" as="geometry" />
        </mxCell>
        <mxCell id="R6TzSi4NHT4oEp8yDii9-10" value="" style="group;rotation=90;" vertex="1" connectable="0" parent="R6TzSi4NHT4oEp8yDii9-1">
          <mxGeometry x="315" y="-60" width="270" height="140" as="geometry" />
        </mxCell>
        <mxCell id="R6TzSi4NHT4oEp8yDii9-11" value="" style="rounded=1;whiteSpace=wrap;html=1;" vertex="1" parent="R6TzSi4NHT4oEp8yDii9-10">
          <mxGeometry x="35" y="-40" width="270" height="140" as="geometry" />
        </mxCell>
        <mxCell id="R6TzSi4NHT4oEp8yDii9-12" value="configSrv" style="shape=cylinder3;whiteSpace=wrap;html=1;boundedLbl=1;backgroundOutline=1;size=15;" vertex="1" parent="R6TzSi4NHT4oEp8yDii9-10">
          <mxGeometry x="75" y="-10" width="60" height="80" as="geometry" />
        </mxCell>
        <mxCell id="R6TzSi4NHT4oEp8yDii9-13" value="router" style="shape=parallelogram;perimeter=parallelogramPerimeter;whiteSpace=wrap;html=1;fixedSize=1;" vertex="1" parent="R6TzSi4NHT4oEp8yDii9-1">
          <mxGeometry x="360" y="290" width="120" height="60" as="geometry" />
        </mxCell>
        <mxCell id="R6TzSi4NHT4oEp8yDii9-14" value="" style="endArrow=classic;html=1;rounded=0;exitX=0.5;exitY=0;exitDx=0;exitDy=0;" edge="1" parent="R6TzSi4NHT4oEp8yDii9-1" source="R6TzSi4NHT4oEp8yDii9-13" target="R6TzSi4NHT4oEp8yDii9-11">
          <mxGeometry width="50" height="50" relative="1" as="geometry">
            <mxPoint x="570" y="320" as="sourcePoint" />
            <mxPoint x="620" y="270" as="targetPoint" />
          </mxGeometry>
        </mxCell>
        <mxCell id="R6TzSi4NHT4oEp8yDii9-15" value="" style="endArrow=none;html=1;rounded=0;" edge="1" parent="R6TzSi4NHT4oEp8yDii9-1" source="R6TzSi4NHT4oEp8yDii9-13">
          <mxGeometry width="50" height="50" relative="1" as="geometry">
            <mxPoint x="570" y="320" as="sourcePoint" />
            <mxPoint x="620" y="320" as="targetPoint" />
          </mxGeometry>
        </mxCell>
        <mxCell id="R6TzSi4NHT4oEp8yDii9-16" value="" style="group" vertex="1" connectable="0" parent="R6TzSi4NHT4oEp8yDii9-1">
          <mxGeometry x="920" y="-260" width="90" height="490" as="geometry" />
        </mxCell>
        <mxCell id="R6TzSi4NHT4oEp8yDii9-17" value="shard1" style="shape=cylinder3;whiteSpace=wrap;html=1;boundedLbl=1;backgroundOutline=1;size=15;" vertex="1" parent="R6TzSi4NHT4oEp8yDii9-16">
          <mxGeometry width="90" height="80" as="geometry" />
        </mxCell>
        <mxCell id="R6TzSi4NHT4oEp8yDii9-18" value="shard1-1" style="shape=cylinder3;whiteSpace=wrap;html=1;boundedLbl=1;backgroundOutline=1;size=15;" vertex="1" parent="R6TzSi4NHT4oEp8yDii9-16">
          <mxGeometry y="206.43" width="90" height="80" as="geometry" />
        </mxCell>
        <mxCell id="R6TzSi4NHT4oEp8yDii9-19" value="shard1-2" style="shape=cylinder3;whiteSpace=wrap;html=1;boundedLbl=1;backgroundOutline=1;size=15;" vertex="1" parent="R6TzSi4NHT4oEp8yDii9-16">
          <mxGeometry y="410" width="90" height="80" as="geometry" />
        </mxCell>
        <mxCell id="R6TzSi4NHT4oEp8yDii9-20" value="" style="endArrow=classic;startArrow=classic;html=1;rounded=0;exitX=0.5;exitY=0;exitDx=0;exitDy=0;exitPerimeter=0;entryX=0.5;entryY=1;entryDx=0;entryDy=0;entryPerimeter=0;" edge="1" parent="R6TzSi4NHT4oEp8yDii9-16" source="R6TzSi4NHT4oEp8yDii9-18" target="R6TzSi4NHT4oEp8yDii9-17">
          <mxGeometry width="50" height="50" relative="1" as="geometry">
            <mxPoint x="-610" y="370" as="sourcePoint" />
            <mxPoint x="-560" y="320" as="targetPoint" />
          </mxGeometry>
        </mxCell>
        <mxCell id="R6TzSi4NHT4oEp8yDii9-21" value="" style="endArrow=classic;startArrow=classic;html=1;rounded=0;" edge="1" parent="R6TzSi4NHT4oEp8yDii9-16" source="R6TzSi4NHT4oEp8yDii9-19" target="R6TzSi4NHT4oEp8yDii9-18">
          <mxGeometry width="50" height="50" relative="1" as="geometry">
            <mxPoint x="-610" y="370" as="sourcePoint" />
            <mxPoint x="-560" y="320" as="targetPoint" />
          </mxGeometry>
        </mxCell>
        <mxCell id="R6TzSi4NHT4oEp8yDii9-22" value="" style="group" vertex="1" connectable="0" parent="R6TzSi4NHT4oEp8yDii9-1">
          <mxGeometry x="920" y="384" width="90" height="442.86" as="geometry" />
        </mxCell>
        <mxCell id="R6TzSi4NHT4oEp8yDii9-23" value="shard2-1" style="shape=cylinder3;whiteSpace=wrap;html=1;boundedLbl=1;backgroundOutline=1;size=15;" vertex="1" parent="R6TzSi4NHT4oEp8yDii9-22">
          <mxGeometry y="172.86" width="90" height="77.14" as="geometry" />
        </mxCell>
        <mxCell id="R6TzSi4NHT4oEp8yDii9-24" value="shard2-2" style="shape=cylinder3;whiteSpace=wrap;html=1;boundedLbl=1;backgroundOutline=1;size=15;" vertex="1" parent="R6TzSi4NHT4oEp8yDii9-22">
          <mxGeometry y="367.15" width="90" height="75.71" as="geometry" />
        </mxCell>
        <mxCell id="R6TzSi4NHT4oEp8yDii9-25" value="shard2" style="shape=cylinder3;whiteSpace=wrap;html=1;boundedLbl=1;backgroundOutline=1;size=15;" vertex="1" parent="R6TzSi4NHT4oEp8yDii9-22">
          <mxGeometry width="90" height="71.43" as="geometry" />
        </mxCell>
        <mxCell id="R6TzSi4NHT4oEp8yDii9-26" value="" style="endArrow=classic;startArrow=classic;html=1;rounded=0;exitX=0.5;exitY=0;exitDx=0;exitDy=0;exitPerimeter=0;entryX=0.5;entryY=1;entryDx=0;entryDy=0;entryPerimeter=0;" edge="1" parent="R6TzSi4NHT4oEp8yDii9-22" source="R6TzSi4NHT4oEp8yDii9-23" target="R6TzSi4NHT4oEp8yDii9-25">
          <mxGeometry width="50" height="50" relative="1" as="geometry">
            <mxPoint x="-260" y="240" as="sourcePoint" />
            <mxPoint x="-210" y="190" as="targetPoint" />
          </mxGeometry>
        </mxCell>
        <mxCell id="R6TzSi4NHT4oEp8yDii9-27" value="" style="endArrow=classic;startArrow=classic;html=1;rounded=0;exitX=0.5;exitY=0;exitDx=0;exitDy=0;exitPerimeter=0;entryX=0.5;entryY=1;entryDx=0;entryDy=0;entryPerimeter=0;" edge="1" parent="R6TzSi4NHT4oEp8yDii9-22" source="R6TzSi4NHT4oEp8yDii9-24" target="R6TzSi4NHT4oEp8yDii9-23">
          <mxGeometry width="50" height="50" relative="1" as="geometry">
            <mxPoint x="-260" y="240" as="sourcePoint" />
            <mxPoint x="-210" y="190" as="targetPoint" />
          </mxGeometry>
        </mxCell>
        <mxCell id="R6TzSi4NHT4oEp8yDii9-28" value="" style="endArrow=classic;html=1;rounded=0;exitX=0.5;exitY=1;exitDx=0;exitDy=0;" edge="1" parent="R6TzSi4NHT4oEp8yDii9-1" target="R6TzSi4NHT4oEp8yDii9-30">
          <mxGeometry width="50" height="50" relative="1" as="geometry">
            <mxPoint x="186.12999999999977" y="350.0000000000002" as="sourcePoint" />
            <mxPoint x="193.87193548387074" y="590" as="targetPoint" />
          </mxGeometry>
        </mxCell>
        <mxCell id="R6TzSi4NHT4oEp8yDii9-29" value="" style="group" vertex="1" connectable="0" parent="R6TzSi4NHT4oEp8yDii9-1">
          <mxGeometry x="130" y="490" width="90" height="140" as="geometry" />
        </mxCell>
        <mxCell id="R6TzSi4NHT4oEp8yDii9-30" value="" style="html=1;whiteSpace=wrap;shape=isoCube2;backgroundOutline=1;isoAngle=15;" vertex="1" parent="R6TzSi4NHT4oEp8yDii9-29">
          <mxGeometry width="90" height="100" as="geometry" />
        </mxCell>
        <mxCell id="R6TzSi4NHT4oEp8yDii9-31" value="Redis" style="text;html=1;align=center;verticalAlign=middle;resizable=0;points=[];autosize=1;strokeColor=none;fillColor=none;" vertex="1" parent="R6TzSi4NHT4oEp8yDii9-29">
          <mxGeometry x="20" y="110" width="50" height="30" as="geometry" />
        </mxCell>
        <mxCell id="Lkq_g9p63e6fCWIXzw5z-0" value="app-instance-1" style="rounded=1;whiteSpace=wrap;html=1;" vertex="1" parent="R6TzSi4NHT4oEp8yDii9-1">
          <mxGeometry x="-250" y="250" width="120" height="60" as="geometry" />
        </mxCell>
        <mxCell id="Lkq_g9p63e6fCWIXzw5z-1" value="app-instance-2" style="rounded=1;whiteSpace=wrap;html=1;" vertex="1" parent="R6TzSi4NHT4oEp8yDii9-1">
          <mxGeometry x="-250" y="384" width="120" height="60" as="geometry" />
        </mxCell>
        <mxCell id="Lkq_g9p63e6fCWIXzw5z-2" value="app-instance-3" style="rounded=1;whiteSpace=wrap;html=1;" vertex="1" parent="R6TzSi4NHT4oEp8yDii9-1">
          <mxGeometry x="-250" y="520" width="120" height="60" as="geometry" />
        </mxCell>
        <mxCell id="Lkq_g9p63e6fCWIXzw5z-3" value="Сайт/React/Nginx" style="rounded=1;whiteSpace=wrap;html=1;" vertex="1" parent="R6TzSi4NHT4oEp8yDii9-1">
          <mxGeometry x="-644" y="384" width="120" height="60" as="geometry" />
        </mxCell>
        <mxCell id="Lkq_g9p63e6fCWIXzw5z-4" value="User" style="shape=umlActor;verticalLabelPosition=bottom;verticalAlign=top;html=1;outlineConnect=0;" vertex="1" parent="R6TzSi4NHT4oEp8yDii9-1">
          <mxGeometry x="-780" y="380" width="30" height="60" as="geometry" />
        </mxCell>
        <mxCell id="Lkq_g9p63e6fCWIXzw5z-7" value="" style="endArrow=classic;html=1;rounded=0;entryX=0;entryY=0.5;entryDx=0;entryDy=0;" edge="1" parent="R6TzSi4NHT4oEp8yDii9-1" source="Lkq_g9p63e6fCWIXzw5z-4" target="Lkq_g9p63e6fCWIXzw5z-3">
          <mxGeometry width="50" height="50" relative="1" as="geometry">
            <mxPoint x="-600" y="430" as="sourcePoint" />
            <mxPoint x="-550" y="380" as="targetPoint" />
          </mxGeometry>
        </mxCell>
        <mxCell id="Lkq_g9p63e6fCWIXzw5z-8" value="gateway" style="rounded=1;whiteSpace=wrap;html=1;" vertex="1" parent="R6TzSi4NHT4oEp8yDii9-1">
          <mxGeometry x="-490" y="384" width="120" height="60" as="geometry" />
        </mxCell>
        <mxCell id="Lkq_g9p63e6fCWIXzw5z-9" value="consul_kv" style="rounded=1;whiteSpace=wrap;html=1;" vertex="1" parent="R6TzSi4NHT4oEp8yDii9-1">
          <mxGeometry x="-470" y="360" width="80" height="40" as="geometry" />
        </mxCell>
        <mxCell id="Lkq_g9p63e6fCWIXzw5z-10" value="consul" style="rounded=1;whiteSpace=wrap;html=1;" vertex="1" parent="R6TzSi4NHT4oEp8yDii9-1">
          <mxGeometry x="-490" y="200" width="120" height="60" as="geometry" />
        </mxCell>
        <mxCell id="Lkq_g9p63e6fCWIXzw5z-11" value="" style="endArrow=classic;html=1;rounded=0;exitX=0.5;exitY=0;exitDx=0;exitDy=0;" edge="1" parent="R6TzSi4NHT4oEp8yDii9-1" source="Lkq_g9p63e6fCWIXzw5z-9" target="Lkq_g9p63e6fCWIXzw5z-10">
          <mxGeometry width="50" height="50" relative="1" as="geometry">
            <mxPoint x="-360" y="310" as="sourcePoint" />
            <mxPoint x="-310" y="260" as="targetPoint" />
          </mxGeometry>
        </mxCell>
        <mxCell id="Lkq_g9p63e6fCWIXzw5z-12" value="" style="endArrow=classic;html=1;rounded=0;exitX=1;exitY=0.5;exitDx=0;exitDy=0;" edge="1" parent="R6TzSi4NHT4oEp8yDii9-1" source="Lkq_g9p63e6fCWIXzw5z-3" target="Lkq_g9p63e6fCWIXzw5z-8">
          <mxGeometry width="50" height="50" relative="1" as="geometry">
            <mxPoint x="-360" y="310" as="sourcePoint" />
            <mxPoint x="-310" y="260" as="targetPoint" />
          </mxGeometry>
        </mxCell>
        <mxCell id="Lkq_g9p63e6fCWIXzw5z-13" value="" style="endArrow=classic;html=1;rounded=0;exitX=1;exitY=0.5;exitDx=0;exitDy=0;entryX=0;entryY=0.5;entryDx=0;entryDy=0;" edge="1" parent="R6TzSi4NHT4oEp8yDii9-1" source="Lkq_g9p63e6fCWIXzw5z-8" target="Lkq_g9p63e6fCWIXzw5z-1">
          <mxGeometry width="50" height="50" relative="1" as="geometry">
            <mxPoint x="-360" y="310" as="sourcePoint" />
            <mxPoint x="-310" y="260" as="targetPoint" />
          </mxGeometry>
        </mxCell>
        <mxCell id="Lkq_g9p63e6fCWIXzw5z-14" value="" style="edgeStyle=elbowEdgeStyle;elbow=horizontal;endArrow=classic;html=1;curved=0;rounded=0;endSize=8;startSize=8;exitX=1;exitY=0.25;exitDx=0;exitDy=0;entryX=0;entryY=0.5;entryDx=0;entryDy=0;" edge="1" parent="R6TzSi4NHT4oEp8yDii9-1" source="Lkq_g9p63e6fCWIXzw5z-8" target="Lkq_g9p63e6fCWIXzw5z-0">
          <mxGeometry width="50" height="50" relative="1" as="geometry">
            <mxPoint x="-360" y="310" as="sourcePoint" />
            <mxPoint x="-310" y="260" as="targetPoint" />
          </mxGeometry>
        </mxCell>
        <mxCell id="Lkq_g9p63e6fCWIXzw5z-15" value="" style="edgeStyle=elbowEdgeStyle;elbow=horizontal;endArrow=classic;html=1;curved=0;rounded=0;endSize=8;startSize=8;exitX=1;exitY=0.75;exitDx=0;exitDy=0;entryX=0;entryY=0.5;entryDx=0;entryDy=0;" edge="1" parent="R6TzSi4NHT4oEp8yDii9-1" source="Lkq_g9p63e6fCWIXzw5z-8" target="Lkq_g9p63e6fCWIXzw5z-2">
          <mxGeometry width="50" height="50" relative="1" as="geometry">
            <mxPoint x="-360" y="310" as="sourcePoint" />
            <mxPoint x="-310" y="260" as="targetPoint" />
          </mxGeometry>
        </mxCell>
        <mxCell id="Lkq_g9p63e6fCWIXzw5z-16" value="" style="edgeStyle=elbowEdgeStyle;elbow=horizontal;endArrow=classic;html=1;curved=0;rounded=0;endSize=8;startSize=8;exitX=1;exitY=0.5;exitDx=0;exitDy=0;entryX=1;entryY=0.5;entryDx=0;entryDy=0;" edge="1" parent="R6TzSi4NHT4oEp8yDii9-1" source="Lkq_g9p63e6fCWIXzw5z-2" target="Lkq_g9p63e6fCWIXzw5z-10">
          <mxGeometry width="50" height="50" relative="1" as="geometry">
            <mxPoint x="-360" y="310" as="sourcePoint" />
            <mxPoint x="-310" y="260" as="targetPoint" />
            <Array as="points">
              <mxPoint x="-90" y="380" />
            </Array>
          </mxGeometry>
        </mxCell>
        <mxCell id="Lkq_g9p63e6fCWIXzw5z-17" value="" style="endArrow=none;html=1;rounded=0;exitX=1;exitY=0.5;exitDx=0;exitDy=0;" edge="1" parent="R6TzSi4NHT4oEp8yDii9-1" source="Lkq_g9p63e6fCWIXzw5z-0">
          <mxGeometry width="50" height="50" relative="1" as="geometry">
            <mxPoint x="-100" y="310" as="sourcePoint" />
            <mxPoint x="-90" y="280" as="targetPoint" />
          </mxGeometry>
        </mxCell>
        <mxCell id="Lkq_g9p63e6fCWIXzw5z-18" value="" style="endArrow=none;html=1;rounded=0;exitX=1;exitY=0.5;exitDx=0;exitDy=0;" edge="1" parent="R6TzSi4NHT4oEp8yDii9-1" source="Lkq_g9p63e6fCWIXzw5z-1">
          <mxGeometry width="50" height="50" relative="1" as="geometry">
            <mxPoint x="-100" y="310" as="sourcePoint" />
            <mxPoint x="-90" y="414" as="targetPoint" />
          </mxGeometry>
        </mxCell>
        <mxCell id="Lkq_g9p63e6fCWIXzw5z-20" value="" style="edgeStyle=elbowEdgeStyle;elbow=horizontal;endArrow=classic;html=1;curved=0;rounded=0;endSize=8;startSize=8;exitX=1;exitY=0.75;exitDx=0;exitDy=0;entryX=0;entryY=1;entryDx=0;entryDy=0;" edge="1" parent="R6TzSi4NHT4oEp8yDii9-1" source="Lkq_g9p63e6fCWIXzw5z-2" target="R6TzSi4NHT4oEp8yDii9-2">
          <mxGeometry width="50" height="50" relative="1" as="geometry">
            <mxPoint x="30" y="550" as="sourcePoint" />
            <mxPoint x="80" y="500" as="targetPoint" />
          </mxGeometry>
        </mxCell>
        <mxCell id="Lkq_g9p63e6fCWIXzw5z-22" value="" style="edgeStyle=elbowEdgeStyle;elbow=horizontal;endArrow=classic;html=1;curved=0;rounded=0;endSize=8;startSize=8;exitX=1;exitY=0.75;exitDx=0;exitDy=0;entryX=0;entryY=0.5;entryDx=0;entryDy=0;" edge="1" parent="R6TzSi4NHT4oEp8yDii9-1" source="Lkq_g9p63e6fCWIXzw5z-0" target="R6TzSi4NHT4oEp8yDii9-2">
          <mxGeometry width="50" height="50" relative="1" as="geometry">
            <mxPoint x="-40" y="430" as="sourcePoint" />
            <mxPoint x="10" y="380" as="targetPoint" />
          </mxGeometry>
        </mxCell>
        <mxCell id="Lkq_g9p63e6fCWIXzw5z-23" value="" style="edgeStyle=elbowEdgeStyle;elbow=horizontal;endArrow=classic;html=1;curved=0;rounded=0;endSize=8;startSize=8;exitX=1;exitY=0.25;exitDx=0;exitDy=0;entryX=0;entryY=0.75;entryDx=0;entryDy=0;" edge="1" parent="R6TzSi4NHT4oEp8yDii9-1" source="Lkq_g9p63e6fCWIXzw5z-1" target="R6TzSi4NHT4oEp8yDii9-2">
          <mxGeometry width="50" height="50" relative="1" as="geometry">
            <mxPoint x="-40" y="430" as="sourcePoint" />
            <mxPoint x="10" y="380" as="targetPoint" />
            <Array as="points">
              <mxPoint x="-30" y="370" />
            </Array>
          </mxGeometry>
        </mxCell>
      </root>
    </mxGraphModel>
  </diagram>
  <diagram name="cdn(final)" id="QqsSP8F2FDKq89XC5Wb2">
    <mxGraphModel dx="3489" dy="2903" grid="1" gridSize="10" guides="1" tooltips="1" connect="1" arrows="1" fold="1" page="1" pageScale="1" pageWidth="1169" pageHeight="827" math="0" shadow="0">
      <root>
        <mxCell id="u1S2gCGp-_vCx85AtQa8-0" />
        <mxCell id="u1S2gCGp-_vCx85AtQa8-1" parent="u1S2gCGp-_vCx85AtQa8-0" />
        <mxCell id="fOajB1RpiQPgzyIp5hKW-38" value="" style="rounded=0;whiteSpace=wrap;html=1;fillColor=#fff2cc;strokeColor=#d6b656;" vertex="1" parent="u1S2gCGp-_vCx85AtQa8-1">
          <mxGeometry x="570" y="720" width="1600" height="1370" as="geometry" />
        </mxCell>
        <mxCell id="fOajB1RpiQPgzyIp5hKW-36" value="" style="rounded=0;whiteSpace=wrap;html=1;fillColor=#fff2cc;strokeColor=#d6b656;" vertex="1" parent="u1S2gCGp-_vCx85AtQa8-1">
          <mxGeometry x="570" y="-880" width="1600" height="1370" as="geometry" />
        </mxCell>
        <mxCell id="u1S2gCGp-_vCx85AtQa8-32" value="app-instance-1" style="rounded=1;whiteSpace=wrap;html=1;" vertex="1" parent="u1S2gCGp-_vCx85AtQa8-1">
          <mxGeometry x="-250" y="250" width="120" height="60" as="geometry" />
        </mxCell>
        <mxCell id="u1S2gCGp-_vCx85AtQa8-33" value="app-instance-2" style="rounded=1;whiteSpace=wrap;html=1;" vertex="1" parent="u1S2gCGp-_vCx85AtQa8-1">
          <mxGeometry x="-250" y="384" width="120" height="60" as="geometry" />
        </mxCell>
        <mxCell id="u1S2gCGp-_vCx85AtQa8-34" value="app-instance-3" style="rounded=1;whiteSpace=wrap;html=1;" vertex="1" parent="u1S2gCGp-_vCx85AtQa8-1">
          <mxGeometry x="-250" y="520" width="120" height="60" as="geometry" />
        </mxCell>
        <mxCell id="u1S2gCGp-_vCx85AtQa8-35" value="Сайт/React/Nginx" style="rounded=1;whiteSpace=wrap;html=1;" vertex="1" parent="u1S2gCGp-_vCx85AtQa8-1">
          <mxGeometry x="-644" y="384" width="120" height="60" as="geometry" />
        </mxCell>
        <mxCell id="u1S2gCGp-_vCx85AtQa8-36" value="User" style="shape=umlActor;verticalLabelPosition=bottom;verticalAlign=top;html=1;outlineConnect=0;" vertex="1" parent="u1S2gCGp-_vCx85AtQa8-1">
          <mxGeometry x="-780" y="380" width="30" height="60" as="geometry" />
        </mxCell>
        <mxCell id="u1S2gCGp-_vCx85AtQa8-37" value="" style="endArrow=classic;html=1;rounded=0;entryX=0;entryY=0.5;entryDx=0;entryDy=0;" edge="1" parent="u1S2gCGp-_vCx85AtQa8-1" source="u1S2gCGp-_vCx85AtQa8-36" target="u1S2gCGp-_vCx85AtQa8-35">
          <mxGeometry width="50" height="50" relative="1" as="geometry">
            <mxPoint x="-600" y="430" as="sourcePoint" />
            <mxPoint x="-550" y="380" as="targetPoint" />
          </mxGeometry>
        </mxCell>
        <mxCell id="u1S2gCGp-_vCx85AtQa8-38" value="gateway" style="rounded=1;whiteSpace=wrap;html=1;" vertex="1" parent="u1S2gCGp-_vCx85AtQa8-1">
          <mxGeometry x="-490" y="384" width="120" height="60" as="geometry" />
        </mxCell>
        <mxCell id="u1S2gCGp-_vCx85AtQa8-39" value="consul_kv" style="rounded=1;whiteSpace=wrap;html=1;" vertex="1" parent="u1S2gCGp-_vCx85AtQa8-1">
          <mxGeometry x="-470" y="360" width="80" height="40" as="geometry" />
        </mxCell>
        <mxCell id="u1S2gCGp-_vCx85AtQa8-40" value="consul" style="rounded=1;whiteSpace=wrap;html=1;" vertex="1" parent="u1S2gCGp-_vCx85AtQa8-1">
          <mxGeometry x="-490" y="200" width="120" height="60" as="geometry" />
        </mxCell>
        <mxCell id="u1S2gCGp-_vCx85AtQa8-41" value="" style="endArrow=classic;html=1;rounded=0;exitX=0.5;exitY=0;exitDx=0;exitDy=0;" edge="1" parent="u1S2gCGp-_vCx85AtQa8-1" source="u1S2gCGp-_vCx85AtQa8-39" target="u1S2gCGp-_vCx85AtQa8-40">
          <mxGeometry width="50" height="50" relative="1" as="geometry">
            <mxPoint x="-360" y="310" as="sourcePoint" />
            <mxPoint x="-310" y="260" as="targetPoint" />
          </mxGeometry>
        </mxCell>
        <mxCell id="u1S2gCGp-_vCx85AtQa8-42" value="" style="endArrow=classic;html=1;rounded=0;exitX=1;exitY=0.5;exitDx=0;exitDy=0;" edge="1" parent="u1S2gCGp-_vCx85AtQa8-1" source="u1S2gCGp-_vCx85AtQa8-35" target="u1S2gCGp-_vCx85AtQa8-38">
          <mxGeometry width="50" height="50" relative="1" as="geometry">
            <mxPoint x="-360" y="310" as="sourcePoint" />
            <mxPoint x="-310" y="260" as="targetPoint" />
          </mxGeometry>
        </mxCell>
        <mxCell id="u1S2gCGp-_vCx85AtQa8-43" value="" style="endArrow=classic;html=1;rounded=0;exitX=1;exitY=0.5;exitDx=0;exitDy=0;entryX=0;entryY=0.5;entryDx=0;entryDy=0;" edge="1" parent="u1S2gCGp-_vCx85AtQa8-1" source="u1S2gCGp-_vCx85AtQa8-38" target="u1S2gCGp-_vCx85AtQa8-33">
          <mxGeometry width="50" height="50" relative="1" as="geometry">
            <mxPoint x="-360" y="310" as="sourcePoint" />
            <mxPoint x="-310" y="260" as="targetPoint" />
          </mxGeometry>
        </mxCell>
        <mxCell id="u1S2gCGp-_vCx85AtQa8-44" value="" style="edgeStyle=elbowEdgeStyle;elbow=horizontal;endArrow=classic;html=1;curved=0;rounded=0;endSize=8;startSize=8;exitX=1;exitY=0.25;exitDx=0;exitDy=0;entryX=0;entryY=0.5;entryDx=0;entryDy=0;" edge="1" parent="u1S2gCGp-_vCx85AtQa8-1" source="u1S2gCGp-_vCx85AtQa8-38" target="u1S2gCGp-_vCx85AtQa8-32">
          <mxGeometry width="50" height="50" relative="1" as="geometry">
            <mxPoint x="-360" y="310" as="sourcePoint" />
            <mxPoint x="-310" y="260" as="targetPoint" />
          </mxGeometry>
        </mxCell>
        <mxCell id="u1S2gCGp-_vCx85AtQa8-45" value="" style="edgeStyle=elbowEdgeStyle;elbow=horizontal;endArrow=classic;html=1;curved=0;rounded=0;endSize=8;startSize=8;exitX=1;exitY=0.75;exitDx=0;exitDy=0;entryX=0;entryY=0.5;entryDx=0;entryDy=0;" edge="1" parent="u1S2gCGp-_vCx85AtQa8-1" source="u1S2gCGp-_vCx85AtQa8-38" target="u1S2gCGp-_vCx85AtQa8-34">
          <mxGeometry width="50" height="50" relative="1" as="geometry">
            <mxPoint x="-360" y="310" as="sourcePoint" />
            <mxPoint x="-310" y="260" as="targetPoint" />
          </mxGeometry>
        </mxCell>
        <mxCell id="u1S2gCGp-_vCx85AtQa8-46" value="" style="edgeStyle=elbowEdgeStyle;elbow=horizontal;endArrow=classic;html=1;curved=0;rounded=0;endSize=8;startSize=8;exitX=1;exitY=0.5;exitDx=0;exitDy=0;entryX=1;entryY=0.5;entryDx=0;entryDy=0;" edge="1" parent="u1S2gCGp-_vCx85AtQa8-1" source="u1S2gCGp-_vCx85AtQa8-34" target="u1S2gCGp-_vCx85AtQa8-40">
          <mxGeometry width="50" height="50" relative="1" as="geometry">
            <mxPoint x="-360" y="310" as="sourcePoint" />
            <mxPoint x="-310" y="260" as="targetPoint" />
            <Array as="points">
              <mxPoint x="-90" y="380" />
            </Array>
          </mxGeometry>
        </mxCell>
        <mxCell id="u1S2gCGp-_vCx85AtQa8-47" value="" style="endArrow=none;html=1;rounded=0;exitX=1;exitY=0.5;exitDx=0;exitDy=0;" edge="1" parent="u1S2gCGp-_vCx85AtQa8-1" source="u1S2gCGp-_vCx85AtQa8-32">
          <mxGeometry width="50" height="50" relative="1" as="geometry">
            <mxPoint x="-100" y="310" as="sourcePoint" />
            <mxPoint x="-90" y="280" as="targetPoint" />
          </mxGeometry>
        </mxCell>
        <mxCell id="u1S2gCGp-_vCx85AtQa8-48" value="" style="endArrow=none;html=1;rounded=0;exitX=1;exitY=0.5;exitDx=0;exitDy=0;" edge="1" parent="u1S2gCGp-_vCx85AtQa8-1" source="u1S2gCGp-_vCx85AtQa8-33">
          <mxGeometry width="50" height="50" relative="1" as="geometry">
            <mxPoint x="-100" y="310" as="sourcePoint" />
            <mxPoint x="-90" y="414" as="targetPoint" />
          </mxGeometry>
        </mxCell>
        <mxCell id="u1S2gCGp-_vCx85AtQa8-49" value="" style="edgeStyle=elbowEdgeStyle;elbow=horizontal;endArrow=classic;html=1;curved=0;rounded=0;endSize=8;startSize=8;exitX=1;exitY=0.75;exitDx=0;exitDy=0;entryX=-0.002;entryY=0.826;entryDx=0;entryDy=0;entryPerimeter=0;" edge="1" parent="u1S2gCGp-_vCx85AtQa8-1" source="u1S2gCGp-_vCx85AtQa8-34" target="fOajB1RpiQPgzyIp5hKW-36">
          <mxGeometry width="50" height="50" relative="1" as="geometry">
            <mxPoint x="30" y="550" as="sourcePoint" />
            <mxPoint x="270" y="425" as="targetPoint" />
            <Array as="points">
              <mxPoint x="270" y="380" />
            </Array>
          </mxGeometry>
        </mxCell>
        <mxCell id="u1S2gCGp-_vCx85AtQa8-50" value="" style="edgeStyle=elbowEdgeStyle;elbow=horizontal;endArrow=classic;html=1;curved=0;rounded=0;endSize=8;startSize=8;exitX=1;exitY=0.75;exitDx=0;exitDy=0;entryX=0.001;entryY=0.63;entryDx=0;entryDy=0;entryPerimeter=0;" edge="1" parent="u1S2gCGp-_vCx85AtQa8-1" source="u1S2gCGp-_vCx85AtQa8-32" target="fOajB1RpiQPgzyIp5hKW-36">
          <mxGeometry width="50" height="50" relative="1" as="geometry">
            <mxPoint x="-40" y="430" as="sourcePoint" />
            <mxPoint x="270" y="320" as="targetPoint" />
          </mxGeometry>
        </mxCell>
        <mxCell id="u1S2gCGp-_vCx85AtQa8-51" value="" style="edgeStyle=elbowEdgeStyle;elbow=horizontal;endArrow=classic;html=1;curved=0;rounded=0;endSize=8;startSize=8;exitX=1;exitY=0.25;exitDx=0;exitDy=0;entryX=-0.001;entryY=0.724;entryDx=0;entryDy=0;entryPerimeter=0;" edge="1" parent="u1S2gCGp-_vCx85AtQa8-1" source="u1S2gCGp-_vCx85AtQa8-33" target="fOajB1RpiQPgzyIp5hKW-36">
          <mxGeometry width="50" height="50" relative="1" as="geometry">
            <mxPoint x="-40" y="430" as="sourcePoint" />
            <mxPoint x="270" y="390" as="targetPoint" />
            <Array as="points">
              <mxPoint x="250" y="250" />
            </Array>
          </mxGeometry>
        </mxCell>
        <mxCell id="fOajB1RpiQPgzyIp5hKW-4" value="" style="group" vertex="1" connectable="0" parent="u1S2gCGp-_vCx85AtQa8-1">
          <mxGeometry x="1000" y="800" width="983.8699999999999" height="1170" as="geometry" />
        </mxCell>
        <mxCell id="u1S2gCGp-_vCx85AtQa8-2" value="pymongo-api" style="rounded=1;whiteSpace=wrap;html=1;" vertex="1" parent="fOajB1RpiQPgzyIp5hKW-4">
          <mxGeometry y="570" width="120" height="60" as="geometry" />
        </mxCell>
        <mxCell id="u1S2gCGp-_vCx85AtQa8-9" value="" style="rounded=1;whiteSpace=wrap;html=1;" vertex="1" parent="fOajB1RpiQPgzyIp5hKW-4">
          <mxGeometry x="690" width="280" height="570" as="geometry" />
        </mxCell>
        <mxCell id="u1S2gCGp-_vCx85AtQa8-10" value="" style="group;rotation=90;" vertex="1" connectable="0" parent="fOajB1RpiQPgzyIp5hKW-4">
          <mxGeometry x="185" y="220" width="270" height="140" as="geometry" />
        </mxCell>
        <mxCell id="u1S2gCGp-_vCx85AtQa8-11" value="" style="rounded=1;whiteSpace=wrap;html=1;" vertex="1" parent="u1S2gCGp-_vCx85AtQa8-10">
          <mxGeometry x="35" y="-40" width="270" height="140" as="geometry" />
        </mxCell>
        <mxCell id="u1S2gCGp-_vCx85AtQa8-12" value="configSrv" style="shape=cylinder3;whiteSpace=wrap;html=1;boundedLbl=1;backgroundOutline=1;size=15;" vertex="1" parent="u1S2gCGp-_vCx85AtQa8-10">
          <mxGeometry x="75" y="-10" width="60" height="80" as="geometry" />
        </mxCell>
        <mxCell id="u1S2gCGp-_vCx85AtQa8-16" value="" style="group" vertex="1" connectable="0" parent="fOajB1RpiQPgzyIp5hKW-4">
          <mxGeometry x="790" y="20" width="90" height="490" as="geometry" />
        </mxCell>
        <mxCell id="u1S2gCGp-_vCx85AtQa8-17" value="shard1" style="shape=cylinder3;whiteSpace=wrap;html=1;boundedLbl=1;backgroundOutline=1;size=15;" vertex="1" parent="u1S2gCGp-_vCx85AtQa8-16">
          <mxGeometry width="90" height="80" as="geometry" />
        </mxCell>
        <mxCell id="u1S2gCGp-_vCx85AtQa8-18" value="shard1-1" style="shape=cylinder3;whiteSpace=wrap;html=1;boundedLbl=1;backgroundOutline=1;size=15;" vertex="1" parent="u1S2gCGp-_vCx85AtQa8-16">
          <mxGeometry y="206.43" width="90" height="80" as="geometry" />
        </mxCell>
        <mxCell id="u1S2gCGp-_vCx85AtQa8-19" value="shard1-2" style="shape=cylinder3;whiteSpace=wrap;html=1;boundedLbl=1;backgroundOutline=1;size=15;" vertex="1" parent="u1S2gCGp-_vCx85AtQa8-16">
          <mxGeometry y="410" width="90" height="80" as="geometry" />
        </mxCell>
        <mxCell id="u1S2gCGp-_vCx85AtQa8-20" value="" style="endArrow=classic;startArrow=classic;html=1;rounded=0;exitX=0.5;exitY=0;exitDx=0;exitDy=0;exitPerimeter=0;entryX=0.5;entryY=1;entryDx=0;entryDy=0;entryPerimeter=0;" edge="1" parent="u1S2gCGp-_vCx85AtQa8-16" source="u1S2gCGp-_vCx85AtQa8-18" target="u1S2gCGp-_vCx85AtQa8-17">
          <mxGeometry width="50" height="50" relative="1" as="geometry">
            <mxPoint x="-610" y="370" as="sourcePoint" />
            <mxPoint x="-560" y="320" as="targetPoint" />
          </mxGeometry>
        </mxCell>
        <mxCell id="u1S2gCGp-_vCx85AtQa8-21" value="" style="endArrow=classic;startArrow=classic;html=1;rounded=0;" edge="1" parent="u1S2gCGp-_vCx85AtQa8-16" source="u1S2gCGp-_vCx85AtQa8-19" target="u1S2gCGp-_vCx85AtQa8-18">
          <mxGeometry width="50" height="50" relative="1" as="geometry">
            <mxPoint x="-610" y="370" as="sourcePoint" />
            <mxPoint x="-560" y="320" as="targetPoint" />
          </mxGeometry>
        </mxCell>
        <mxCell id="u1S2gCGp-_vCx85AtQa8-29" value="" style="group" vertex="1" connectable="0" parent="fOajB1RpiQPgzyIp5hKW-4">
          <mxGeometry y="770" width="90" height="140" as="geometry" />
        </mxCell>
        <mxCell id="u1S2gCGp-_vCx85AtQa8-30" value="" style="html=1;whiteSpace=wrap;shape=isoCube2;backgroundOutline=1;isoAngle=15;" vertex="1" parent="u1S2gCGp-_vCx85AtQa8-29">
          <mxGeometry width="90" height="100" as="geometry" />
        </mxCell>
        <mxCell id="u1S2gCGp-_vCx85AtQa8-31" value="Redis" style="text;html=1;align=center;verticalAlign=middle;resizable=0;points=[];autosize=1;strokeColor=none;fillColor=none;" vertex="1" parent="u1S2gCGp-_vCx85AtQa8-29">
          <mxGeometry x="20" y="110" width="50" height="30" as="geometry" />
        </mxCell>
        <mxCell id="u1S2gCGp-_vCx85AtQa8-3" style="edgeStyle=orthogonalEdgeStyle;rounded=0;orthogonalLoop=1;jettySize=auto;html=1;exitX=1;exitY=0.5;exitDx=0;exitDy=0;" edge="1" parent="fOajB1RpiQPgzyIp5hKW-4" source="u1S2gCGp-_vCx85AtQa8-2">
          <mxGeometry relative="1" as="geometry">
            <mxPoint x="243.87" y="600" as="targetPoint" />
          </mxGeometry>
        </mxCell>
        <mxCell id="u1S2gCGp-_vCx85AtQa8-4" value="" style="group" vertex="1" connectable="0" parent="fOajB1RpiQPgzyIp5hKW-4">
          <mxGeometry x="543.87" y="420" width="150" height="260" as="geometry" />
        </mxCell>
        <mxCell id="u1S2gCGp-_vCx85AtQa8-5" value="" style="edgeStyle=elbowEdgeStyle;elbow=horizontal;endArrow=classic;html=1;curved=0;rounded=0;endSize=8;startSize=8;exitX=1;exitY=0.5;exitDx=0;exitDy=0;exitPerimeter=0;" edge="1" parent="u1S2gCGp-_vCx85AtQa8-4">
          <mxGeometry width="50" height="50" relative="1" as="geometry">
            <mxPoint x="-50" y="180.00000000000023" as="sourcePoint" />
            <mxPoint x="150" as="targetPoint" />
          </mxGeometry>
        </mxCell>
        <mxCell id="u1S2gCGp-_vCx85AtQa8-6" value="" style="edgeStyle=elbowEdgeStyle;elbow=horizontal;endArrow=classic;html=1;curved=0;rounded=0;endSize=8;startSize=8;entryX=0;entryY=0.5;entryDx=0;entryDy=0;" edge="1" parent="u1S2gCGp-_vCx85AtQa8-4" target="u1S2gCGp-_vCx85AtQa8-8">
          <mxGeometry width="50" height="50" relative="1" as="geometry">
            <mxPoint y="180" as="sourcePoint" />
            <mxPoint x="100" y="340" as="targetPoint" />
            <Array as="points">
              <mxPoint x="50" y="260" />
            </Array>
          </mxGeometry>
        </mxCell>
        <mxCell id="u1S2gCGp-_vCx85AtQa8-8" value="" style="rounded=1;whiteSpace=wrap;html=1;" vertex="1" parent="fOajB1RpiQPgzyIp5hKW-4">
          <mxGeometry x="693.87" y="650" width="290" height="520" as="geometry" />
        </mxCell>
        <mxCell id="u1S2gCGp-_vCx85AtQa8-13" value="router" style="shape=parallelogram;perimeter=parallelogramPerimeter;whiteSpace=wrap;html=1;fixedSize=1;" vertex="1" parent="fOajB1RpiQPgzyIp5hKW-4">
          <mxGeometry x="233.87" y="570" width="120" height="60" as="geometry" />
        </mxCell>
        <mxCell id="u1S2gCGp-_vCx85AtQa8-14" value="" style="endArrow=classic;html=1;rounded=0;exitX=0.5;exitY=0;exitDx=0;exitDy=0;" edge="1" parent="fOajB1RpiQPgzyIp5hKW-4" source="u1S2gCGp-_vCx85AtQa8-13" target="u1S2gCGp-_vCx85AtQa8-11">
          <mxGeometry width="50" height="50" relative="1" as="geometry">
            <mxPoint x="443.87" y="600" as="sourcePoint" />
            <mxPoint x="493.87" y="550" as="targetPoint" />
          </mxGeometry>
        </mxCell>
        <mxCell id="u1S2gCGp-_vCx85AtQa8-15" value="" style="endArrow=none;html=1;rounded=0;" edge="1" parent="fOajB1RpiQPgzyIp5hKW-4" source="u1S2gCGp-_vCx85AtQa8-13">
          <mxGeometry width="50" height="50" relative="1" as="geometry">
            <mxPoint x="443.87" y="600" as="sourcePoint" />
            <mxPoint x="493.87" y="600" as="targetPoint" />
          </mxGeometry>
        </mxCell>
        <mxCell id="u1S2gCGp-_vCx85AtQa8-22" value="" style="group" vertex="1" connectable="0" parent="fOajB1RpiQPgzyIp5hKW-4">
          <mxGeometry x="793.87" y="664" width="90" height="442.86" as="geometry" />
        </mxCell>
        <mxCell id="u1S2gCGp-_vCx85AtQa8-23" value="shard2-1" style="shape=cylinder3;whiteSpace=wrap;html=1;boundedLbl=1;backgroundOutline=1;size=15;" vertex="1" parent="u1S2gCGp-_vCx85AtQa8-22">
          <mxGeometry y="172.86" width="90" height="77.14" as="geometry" />
        </mxCell>
        <mxCell id="u1S2gCGp-_vCx85AtQa8-24" value="shard2-2" style="shape=cylinder3;whiteSpace=wrap;html=1;boundedLbl=1;backgroundOutline=1;size=15;" vertex="1" parent="u1S2gCGp-_vCx85AtQa8-22">
          <mxGeometry y="367.15" width="90" height="75.71" as="geometry" />
        </mxCell>
        <mxCell id="u1S2gCGp-_vCx85AtQa8-25" value="shard2" style="shape=cylinder3;whiteSpace=wrap;html=1;boundedLbl=1;backgroundOutline=1;size=15;" vertex="1" parent="u1S2gCGp-_vCx85AtQa8-22">
          <mxGeometry width="90" height="71.43" as="geometry" />
        </mxCell>
        <mxCell id="u1S2gCGp-_vCx85AtQa8-26" value="" style="endArrow=classic;startArrow=classic;html=1;rounded=0;exitX=0.5;exitY=0;exitDx=0;exitDy=0;exitPerimeter=0;entryX=0.5;entryY=1;entryDx=0;entryDy=0;entryPerimeter=0;" edge="1" parent="u1S2gCGp-_vCx85AtQa8-22" source="u1S2gCGp-_vCx85AtQa8-23" target="u1S2gCGp-_vCx85AtQa8-25">
          <mxGeometry width="50" height="50" relative="1" as="geometry">
            <mxPoint x="-260" y="240" as="sourcePoint" />
            <mxPoint x="-210" y="190" as="targetPoint" />
          </mxGeometry>
        </mxCell>
        <mxCell id="u1S2gCGp-_vCx85AtQa8-27" value="" style="endArrow=classic;startArrow=classic;html=1;rounded=0;exitX=0.5;exitY=0;exitDx=0;exitDy=0;exitPerimeter=0;entryX=0.5;entryY=1;entryDx=0;entryDy=0;entryPerimeter=0;" edge="1" parent="u1S2gCGp-_vCx85AtQa8-22" source="u1S2gCGp-_vCx85AtQa8-24" target="u1S2gCGp-_vCx85AtQa8-23">
          <mxGeometry width="50" height="50" relative="1" as="geometry">
            <mxPoint x="-260" y="240" as="sourcePoint" />
            <mxPoint x="-210" y="190" as="targetPoint" />
          </mxGeometry>
        </mxCell>
        <mxCell id="u1S2gCGp-_vCx85AtQa8-28" value="" style="endArrow=classic;html=1;rounded=0;exitX=0.5;exitY=1;exitDx=0;exitDy=0;" edge="1" parent="fOajB1RpiQPgzyIp5hKW-4" target="u1S2gCGp-_vCx85AtQa8-30">
          <mxGeometry width="50" height="50" relative="1" as="geometry">
            <mxPoint x="59.99999999999977" y="630.0000000000002" as="sourcePoint" />
            <mxPoint x="67.74193548387075" y="870" as="targetPoint" />
          </mxGeometry>
        </mxCell>
        <mxCell id="fOajB1RpiQPgzyIp5hKW-6" value="" style="group" vertex="1" connectable="0" parent="u1S2gCGp-_vCx85AtQa8-1">
          <mxGeometry x="970" y="-820" width="983.8699999999999" height="1170" as="geometry" />
        </mxCell>
        <mxCell id="fOajB1RpiQPgzyIp5hKW-7" value="pymongo-api" style="rounded=1;whiteSpace=wrap;html=1;" vertex="1" parent="fOajB1RpiQPgzyIp5hKW-6">
          <mxGeometry y="570" width="120" height="60" as="geometry" />
        </mxCell>
        <mxCell id="fOajB1RpiQPgzyIp5hKW-8" value="" style="rounded=1;whiteSpace=wrap;html=1;" vertex="1" parent="fOajB1RpiQPgzyIp5hKW-6">
          <mxGeometry x="690" width="280" height="570" as="geometry" />
        </mxCell>
        <mxCell id="fOajB1RpiQPgzyIp5hKW-9" value="" style="group;rotation=90;" vertex="1" connectable="0" parent="fOajB1RpiQPgzyIp5hKW-6">
          <mxGeometry x="185" y="220" width="270" height="140" as="geometry" />
        </mxCell>
        <mxCell id="fOajB1RpiQPgzyIp5hKW-10" value="" style="rounded=1;whiteSpace=wrap;html=1;" vertex="1" parent="fOajB1RpiQPgzyIp5hKW-9">
          <mxGeometry x="35" y="-40" width="270" height="140" as="geometry" />
        </mxCell>
        <mxCell id="fOajB1RpiQPgzyIp5hKW-11" value="configSrv" style="shape=cylinder3;whiteSpace=wrap;html=1;boundedLbl=1;backgroundOutline=1;size=15;" vertex="1" parent="fOajB1RpiQPgzyIp5hKW-9">
          <mxGeometry x="75" y="-10" width="60" height="80" as="geometry" />
        </mxCell>
        <mxCell id="fOajB1RpiQPgzyIp5hKW-12" value="" style="group" vertex="1" connectable="0" parent="fOajB1RpiQPgzyIp5hKW-6">
          <mxGeometry x="790" y="20" width="90" height="490" as="geometry" />
        </mxCell>
        <mxCell id="fOajB1RpiQPgzyIp5hKW-13" value="shard1" style="shape=cylinder3;whiteSpace=wrap;html=1;boundedLbl=1;backgroundOutline=1;size=15;" vertex="1" parent="fOajB1RpiQPgzyIp5hKW-12">
          <mxGeometry width="90" height="80" as="geometry" />
        </mxCell>
        <mxCell id="fOajB1RpiQPgzyIp5hKW-14" value="shard1-1" style="shape=cylinder3;whiteSpace=wrap;html=1;boundedLbl=1;backgroundOutline=1;size=15;" vertex="1" parent="fOajB1RpiQPgzyIp5hKW-12">
          <mxGeometry y="206.43" width="90" height="80" as="geometry" />
        </mxCell>
        <mxCell id="fOajB1RpiQPgzyIp5hKW-15" value="shard1-2" style="shape=cylinder3;whiteSpace=wrap;html=1;boundedLbl=1;backgroundOutline=1;size=15;" vertex="1" parent="fOajB1RpiQPgzyIp5hKW-12">
          <mxGeometry y="410" width="90" height="80" as="geometry" />
        </mxCell>
        <mxCell id="fOajB1RpiQPgzyIp5hKW-16" value="" style="endArrow=classic;startArrow=classic;html=1;rounded=0;exitX=0.5;exitY=0;exitDx=0;exitDy=0;exitPerimeter=0;entryX=0.5;entryY=1;entryDx=0;entryDy=0;entryPerimeter=0;" edge="1" parent="fOajB1RpiQPgzyIp5hKW-12" source="fOajB1RpiQPgzyIp5hKW-14" target="fOajB1RpiQPgzyIp5hKW-13">
          <mxGeometry width="50" height="50" relative="1" as="geometry">
            <mxPoint x="-610" y="370" as="sourcePoint" />
            <mxPoint x="-560" y="320" as="targetPoint" />
          </mxGeometry>
        </mxCell>
        <mxCell id="fOajB1RpiQPgzyIp5hKW-17" value="" style="endArrow=classic;startArrow=classic;html=1;rounded=0;" edge="1" parent="fOajB1RpiQPgzyIp5hKW-12" source="fOajB1RpiQPgzyIp5hKW-15" target="fOajB1RpiQPgzyIp5hKW-14">
          <mxGeometry width="50" height="50" relative="1" as="geometry">
            <mxPoint x="-610" y="370" as="sourcePoint" />
            <mxPoint x="-560" y="320" as="targetPoint" />
          </mxGeometry>
        </mxCell>
        <mxCell id="fOajB1RpiQPgzyIp5hKW-18" value="" style="group" vertex="1" connectable="0" parent="fOajB1RpiQPgzyIp5hKW-6">
          <mxGeometry y="770" width="90" height="140" as="geometry" />
        </mxCell>
        <mxCell id="fOajB1RpiQPgzyIp5hKW-19" value="" style="html=1;whiteSpace=wrap;shape=isoCube2;backgroundOutline=1;isoAngle=15;" vertex="1" parent="fOajB1RpiQPgzyIp5hKW-18">
          <mxGeometry width="90" height="100" as="geometry" />
        </mxCell>
        <mxCell id="fOajB1RpiQPgzyIp5hKW-20" value="Redis" style="text;html=1;align=center;verticalAlign=middle;resizable=0;points=[];autosize=1;strokeColor=none;fillColor=none;" vertex="1" parent="fOajB1RpiQPgzyIp5hKW-18">
          <mxGeometry x="20" y="110" width="50" height="30" as="geometry" />
        </mxCell>
        <mxCell id="fOajB1RpiQPgzyIp5hKW-21" style="edgeStyle=orthogonalEdgeStyle;rounded=0;orthogonalLoop=1;jettySize=auto;html=1;exitX=1;exitY=0.5;exitDx=0;exitDy=0;" edge="1" parent="fOajB1RpiQPgzyIp5hKW-6" source="fOajB1RpiQPgzyIp5hKW-7">
          <mxGeometry relative="1" as="geometry">
            <mxPoint x="243.87" y="600" as="targetPoint" />
          </mxGeometry>
        </mxCell>
        <mxCell id="fOajB1RpiQPgzyIp5hKW-22" value="" style="group" vertex="1" connectable="0" parent="fOajB1RpiQPgzyIp5hKW-6">
          <mxGeometry x="543.87" y="420" width="150" height="260" as="geometry" />
        </mxCell>
        <mxCell id="fOajB1RpiQPgzyIp5hKW-23" value="" style="edgeStyle=elbowEdgeStyle;elbow=horizontal;endArrow=classic;html=1;curved=0;rounded=0;endSize=8;startSize=8;exitX=1;exitY=0.5;exitDx=0;exitDy=0;exitPerimeter=0;" edge="1" parent="fOajB1RpiQPgzyIp5hKW-22">
          <mxGeometry width="50" height="50" relative="1" as="geometry">
            <mxPoint x="-50" y="180.00000000000023" as="sourcePoint" />
            <mxPoint x="150" as="targetPoint" />
          </mxGeometry>
        </mxCell>
        <mxCell id="fOajB1RpiQPgzyIp5hKW-24" value="" style="edgeStyle=elbowEdgeStyle;elbow=horizontal;endArrow=classic;html=1;curved=0;rounded=0;endSize=8;startSize=8;entryX=0;entryY=0.5;entryDx=0;entryDy=0;" edge="1" parent="fOajB1RpiQPgzyIp5hKW-22" target="fOajB1RpiQPgzyIp5hKW-25">
          <mxGeometry width="50" height="50" relative="1" as="geometry">
            <mxPoint y="180" as="sourcePoint" />
            <mxPoint x="100" y="340" as="targetPoint" />
            <Array as="points">
              <mxPoint x="50" y="260" />
            </Array>
          </mxGeometry>
        </mxCell>
        <mxCell id="fOajB1RpiQPgzyIp5hKW-25" value="" style="rounded=1;whiteSpace=wrap;html=1;" vertex="1" parent="fOajB1RpiQPgzyIp5hKW-6">
          <mxGeometry x="693.87" y="650" width="290" height="520" as="geometry" />
        </mxCell>
        <mxCell id="fOajB1RpiQPgzyIp5hKW-26" value="router" style="shape=parallelogram;perimeter=parallelogramPerimeter;whiteSpace=wrap;html=1;fixedSize=1;" vertex="1" parent="fOajB1RpiQPgzyIp5hKW-6">
          <mxGeometry x="233.87" y="570" width="120" height="60" as="geometry" />
        </mxCell>
        <mxCell id="fOajB1RpiQPgzyIp5hKW-27" value="" style="endArrow=classic;html=1;rounded=0;exitX=0.5;exitY=0;exitDx=0;exitDy=0;" edge="1" parent="fOajB1RpiQPgzyIp5hKW-6" source="fOajB1RpiQPgzyIp5hKW-26" target="fOajB1RpiQPgzyIp5hKW-10">
          <mxGeometry width="50" height="50" relative="1" as="geometry">
            <mxPoint x="443.87" y="600" as="sourcePoint" />
            <mxPoint x="493.87" y="550" as="targetPoint" />
          </mxGeometry>
        </mxCell>
        <mxCell id="fOajB1RpiQPgzyIp5hKW-28" value="" style="endArrow=none;html=1;rounded=0;" edge="1" parent="fOajB1RpiQPgzyIp5hKW-6" source="fOajB1RpiQPgzyIp5hKW-26">
          <mxGeometry width="50" height="50" relative="1" as="geometry">
            <mxPoint x="443.87" y="600" as="sourcePoint" />
            <mxPoint x="493.87" y="600" as="targetPoint" />
          </mxGeometry>
        </mxCell>
        <mxCell id="fOajB1RpiQPgzyIp5hKW-29" value="" style="group" vertex="1" connectable="0" parent="fOajB1RpiQPgzyIp5hKW-6">
          <mxGeometry x="793.87" y="664" width="90" height="442.86" as="geometry" />
        </mxCell>
        <mxCell id="fOajB1RpiQPgzyIp5hKW-30" value="shard2-1" style="shape=cylinder3;whiteSpace=wrap;html=1;boundedLbl=1;backgroundOutline=1;size=15;" vertex="1" parent="fOajB1RpiQPgzyIp5hKW-29">
          <mxGeometry y="172.86" width="90" height="77.14" as="geometry" />
        </mxCell>
        <mxCell id="fOajB1RpiQPgzyIp5hKW-31" value="shard2-2" style="shape=cylinder3;whiteSpace=wrap;html=1;boundedLbl=1;backgroundOutline=1;size=15;" vertex="1" parent="fOajB1RpiQPgzyIp5hKW-29">
          <mxGeometry y="367.15" width="90" height="75.71" as="geometry" />
        </mxCell>
        <mxCell id="fOajB1RpiQPgzyIp5hKW-32" value="shard2" style="shape=cylinder3;whiteSpace=wrap;html=1;boundedLbl=1;backgroundOutline=1;size=15;" vertex="1" parent="fOajB1RpiQPgzyIp5hKW-29">
          <mxGeometry width="90" height="71.43" as="geometry" />
        </mxCell>
        <mxCell id="fOajB1RpiQPgzyIp5hKW-33" value="" style="endArrow=classic;startArrow=classic;html=1;rounded=0;exitX=0.5;exitY=0;exitDx=0;exitDy=0;exitPerimeter=0;entryX=0.5;entryY=1;entryDx=0;entryDy=0;entryPerimeter=0;" edge="1" parent="fOajB1RpiQPgzyIp5hKW-29" source="fOajB1RpiQPgzyIp5hKW-30" target="fOajB1RpiQPgzyIp5hKW-32">
          <mxGeometry width="50" height="50" relative="1" as="geometry">
            <mxPoint x="-260" y="240" as="sourcePoint" />
            <mxPoint x="-210" y="190" as="targetPoint" />
          </mxGeometry>
        </mxCell>
        <mxCell id="fOajB1RpiQPgzyIp5hKW-34" value="" style="endArrow=classic;startArrow=classic;html=1;rounded=0;exitX=0.5;exitY=0;exitDx=0;exitDy=0;exitPerimeter=0;entryX=0.5;entryY=1;entryDx=0;entryDy=0;entryPerimeter=0;" edge="1" parent="fOajB1RpiQPgzyIp5hKW-29" source="fOajB1RpiQPgzyIp5hKW-31" target="fOajB1RpiQPgzyIp5hKW-30">
          <mxGeometry width="50" height="50" relative="1" as="geometry">
            <mxPoint x="-260" y="240" as="sourcePoint" />
            <mxPoint x="-210" y="190" as="targetPoint" />
          </mxGeometry>
        </mxCell>
        <mxCell id="fOajB1RpiQPgzyIp5hKW-35" value="" style="endArrow=classic;html=1;rounded=0;exitX=0.5;exitY=1;exitDx=0;exitDy=0;" edge="1" parent="fOajB1RpiQPgzyIp5hKW-6" target="fOajB1RpiQPgzyIp5hKW-19">
          <mxGeometry width="50" height="50" relative="1" as="geometry">
            <mxPoint x="59.99999999999977" y="630.0000000000002" as="sourcePoint" />
            <mxPoint x="67.74193548387075" y="870" as="targetPoint" />
          </mxGeometry>
        </mxCell>
        <mxCell id="fOajB1RpiQPgzyIp5hKW-37" value="region-1" style="text;html=1;align=center;verticalAlign=middle;resizable=0;points=[];autosize=1;strokeColor=none;fillColor=none;fontSize=30;" vertex="1" parent="u1S2gCGp-_vCx85AtQa8-1">
          <mxGeometry x="610" y="-830" width="130" height="50" as="geometry" />
        </mxCell>
        <mxCell id="fOajB1RpiQPgzyIp5hKW-39" value="region-2" style="text;html=1;align=center;verticalAlign=middle;resizable=0;points=[];autosize=1;strokeColor=none;fillColor=none;fontSize=30;" vertex="1" parent="u1S2gCGp-_vCx85AtQa8-1">
          <mxGeometry x="690" y="770" width="130" height="50" as="geometry" />
        </mxCell>
        <mxCell id="fOajB1RpiQPgzyIp5hKW-41" value="CDN" style="ellipse;shape=cloud;whiteSpace=wrap;html=1;" vertex="1" parent="u1S2gCGp-_vCx85AtQa8-1">
          <mxGeometry x="650" y="-260" width="120" height="80" as="geometry" />
        </mxCell>
        <mxCell id="fOajB1RpiQPgzyIp5hKW-42" value="CDN" style="ellipse;shape=cloud;whiteSpace=wrap;html=1;" vertex="1" parent="u1S2gCGp-_vCx85AtQa8-1">
          <mxGeometry x="650" y="1365" width="120" height="80" as="geometry" />
        </mxCell>
        <mxCell id="fOajB1RpiQPgzyIp5hKW-43" value="" style="endArrow=classic;html=1;rounded=0;exitX=0.875;exitY=0.5;exitDx=0;exitDy=0;exitPerimeter=0;" edge="1" parent="u1S2gCGp-_vCx85AtQa8-1" source="fOajB1RpiQPgzyIp5hKW-42">
          <mxGeometry width="50" height="50" relative="1" as="geometry">
            <mxPoint x="430" y="1160" as="sourcePoint" />
            <mxPoint x="1000" y="1405" as="targetPoint" />
          </mxGeometry>
        </mxCell>
        <mxCell id="fOajB1RpiQPgzyIp5hKW-44" value="" style="endArrow=classic;html=1;rounded=0;exitX=0.875;exitY=0.5;exitDx=0;exitDy=0;exitPerimeter=0;entryX=0;entryY=0.5;entryDx=0;entryDy=0;" edge="1" parent="u1S2gCGp-_vCx85AtQa8-1" source="fOajB1RpiQPgzyIp5hKW-41" target="fOajB1RpiQPgzyIp5hKW-7">
          <mxGeometry width="50" height="50" relative="1" as="geometry">
            <mxPoint x="430" y="50" as="sourcePoint" />
            <mxPoint x="480" as="targetPoint" />
          </mxGeometry>
        </mxCell>
        <mxCell id="fOajB1RpiQPgzyIp5hKW-45" value="" style="edgeStyle=elbowEdgeStyle;elbow=horizontal;endArrow=classic;html=1;curved=0;rounded=0;endSize=8;startSize=8;exitX=1;exitY=0.25;exitDx=0;exitDy=0;entryX=-0.002;entryY=0.094;entryDx=0;entryDy=0;entryPerimeter=0;strokeColor=light-dark(#5900ff, #ededed);" edge="1" parent="u1S2gCGp-_vCx85AtQa8-1" source="u1S2gCGp-_vCx85AtQa8-32" target="fOajB1RpiQPgzyIp5hKW-38">
          <mxGeometry width="50" height="50" relative="1" as="geometry">
            <mxPoint x="430" y="500" as="sourcePoint" />
            <mxPoint x="480" y="450" as="targetPoint" />
            <Array as="points">
              <mxPoint x="130" y="560" />
            </Array>
          </mxGeometry>
        </mxCell>
        <mxCell id="fOajB1RpiQPgzyIp5hKW-46" value="" style="edgeStyle=elbowEdgeStyle;elbow=horizontal;endArrow=classic;html=1;curved=0;rounded=0;endSize=8;startSize=8;exitX=1;exitY=0.75;exitDx=0;exitDy=0;entryX=-0.002;entryY=0.206;entryDx=0;entryDy=0;entryPerimeter=0;strokeColor=light-dark(#5801f9, #ededed);" edge="1" parent="u1S2gCGp-_vCx85AtQa8-1" source="u1S2gCGp-_vCx85AtQa8-33" target="fOajB1RpiQPgzyIp5hKW-38">
          <mxGeometry width="50" height="50" relative="1" as="geometry">
            <mxPoint x="430" y="500" as="sourcePoint" />
            <mxPoint x="480" y="450" as="targetPoint" />
            <Array as="points">
              <mxPoint x="70" y="710" />
            </Array>
          </mxGeometry>
        </mxCell>
        <mxCell id="fOajB1RpiQPgzyIp5hKW-47" value="" style="edgeStyle=elbowEdgeStyle;elbow=horizontal;endArrow=classic;html=1;curved=0;rounded=0;endSize=8;startSize=8;exitX=1;exitY=1;exitDx=0;exitDy=0;entryX=0.003;entryY=0.519;entryDx=0;entryDy=0;entryPerimeter=0;strokeColor=light-dark(#6705fa, #ededed);" edge="1" parent="u1S2gCGp-_vCx85AtQa8-1" source="u1S2gCGp-_vCx85AtQa8-34" target="fOajB1RpiQPgzyIp5hKW-38">
          <mxGeometry width="50" height="50" relative="1" as="geometry">
            <mxPoint x="430" y="940" as="sourcePoint" />
            <mxPoint x="480" y="890" as="targetPoint" />
            <Array as="points">
              <mxPoint x="20" y="1010" />
            </Array>
          </mxGeometry>
        </mxCell>
        <mxCell id="fOajB1RpiQPgzyIp5hKW-48" value="" style="endArrow=none;dashed=1;html=1;dashPattern=1 3;strokeWidth=2;rounded=0;entryX=0.13;entryY=0.77;entryDx=0;entryDy=0;entryPerimeter=0;" edge="1" parent="u1S2gCGp-_vCx85AtQa8-1" target="fOajB1RpiQPgzyIp5hKW-41">
          <mxGeometry width="50" height="50" relative="1" as="geometry">
            <mxPoint x="570" y="-20" as="sourcePoint" />
            <mxPoint x="480" as="targetPoint" />
          </mxGeometry>
        </mxCell>
        <mxCell id="fOajB1RpiQPgzyIp5hKW-49" value="" style="endArrow=none;dashed=1;html=1;rounded=0;entryX=0.55;entryY=0.95;entryDx=0;entryDy=0;entryPerimeter=0;" edge="1" parent="u1S2gCGp-_vCx85AtQa8-1" target="fOajB1RpiQPgzyIp5hKW-41">
          <mxGeometry width="50" height="50" relative="1" as="geometry">
            <mxPoint x="570" y="110" as="sourcePoint" />
            <mxPoint x="480" as="targetPoint" />
          </mxGeometry>
        </mxCell>
        <mxCell id="fOajB1RpiQPgzyIp5hKW-50" value="" style="endArrow=none;dashed=1;html=1;dashPattern=1 3;strokeWidth=2;rounded=0;entryX=0.96;entryY=0.7;entryDx=0;entryDy=0;entryPerimeter=0;" edge="1" parent="u1S2gCGp-_vCx85AtQa8-1" target="fOajB1RpiQPgzyIp5hKW-41">
          <mxGeometry width="50" height="50" relative="1" as="geometry">
            <mxPoint x="570" y="250" as="sourcePoint" />
            <mxPoint x="480" as="targetPoint" />
          </mxGeometry>
        </mxCell>
        <mxCell id="fOajB1RpiQPgzyIp5hKW-51" value="" style="endArrow=none;dashed=1;html=1;rounded=0;exitX=-0.003;exitY=0.093;exitDx=0;exitDy=0;exitPerimeter=0;entryX=0.88;entryY=0.25;entryDx=0;entryDy=0;entryPerimeter=0;" edge="1" parent="u1S2gCGp-_vCx85AtQa8-1" source="fOajB1RpiQPgzyIp5hKW-38" target="fOajB1RpiQPgzyIp5hKW-42">
          <mxGeometry width="50" height="50" relative="1" as="geometry">
            <mxPoint x="430" y="1390" as="sourcePoint" />
            <mxPoint x="480" y="1340" as="targetPoint" />
          </mxGeometry>
        </mxCell>
        <mxCell id="fOajB1RpiQPgzyIp5hKW-52" value="" style="endArrow=none;dashed=1;html=1;rounded=0;entryX=-0.001;entryY=0.205;entryDx=0;entryDy=0;entryPerimeter=0;exitX=0.625;exitY=0.2;exitDx=0;exitDy=0;exitPerimeter=0;" edge="1" parent="u1S2gCGp-_vCx85AtQa8-1" source="fOajB1RpiQPgzyIp5hKW-42" target="fOajB1RpiQPgzyIp5hKW-38">
          <mxGeometry width="50" height="50" relative="1" as="geometry">
            <mxPoint x="430" y="1390" as="sourcePoint" />
            <mxPoint x="480" y="1340" as="targetPoint" />
          </mxGeometry>
        </mxCell>
        <mxCell id="fOajB1RpiQPgzyIp5hKW-53" value="" style="endArrow=none;dashed=1;html=1;rounded=0;exitX=0;exitY=0.523;exitDx=0;exitDy=0;exitPerimeter=0;entryX=0.07;entryY=0.4;entryDx=0;entryDy=0;entryPerimeter=0;" edge="1" parent="u1S2gCGp-_vCx85AtQa8-1" source="fOajB1RpiQPgzyIp5hKW-38" target="fOajB1RpiQPgzyIp5hKW-42">
          <mxGeometry width="50" height="50" relative="1" as="geometry">
            <mxPoint x="430" y="1390" as="sourcePoint" />
            <mxPoint x="480" y="1340" as="targetPoint" />
          </mxGeometry>
        </mxCell>
      </root>
    </mxGraphModel>
  </diagram>
</mxfile>
